<?xml version="1.0" encoding="utf-8"?>
<svg width="600" height="200" viewBox="635 0 600 200" fill="none" xmlns="http://www.w3.org/2000/svg">
  <rect width="600" height="200" transform="translate(635)" fill="#2E2E7B"/>
  <g filter="url(#filter0_d_0_1)">
    <path d="M804.306 0L803.464 3.59009L801.362 2.09506L802.764 4.33828L799.402 5.2353L802.764 6.13232L801.362 8.37755L803.464 6.88051L804.306 10.4706L805.146 6.88051L807.248 8.37755L805.847 6.13232L809.21 5.2353L805.847 4.33828L807.248 2.09506L805.146 3.59009L804.306 0ZM1231.57 4.26486L1230.98 6.77839L1229.51 5.7312L1230.49 7.30099L1228.13 7.92971L1230.49 8.55709L1229.51 10.1289L1230.98 9.08169L1231.57 11.5952L1232.16 9.08169L1233.63 10.1289L1232.65 8.55709L1235 7.92971L1232.65 7.30099L1233.63 5.7312L1232.16 6.77839L1231.57 4.26486ZM733.151 5.88471L732.31 9.47614L730.208 7.97976L731.61 10.223L728.246 11.1213L731.61 12.0184L730.208 14.2623L732.31 12.7672L733.151 16.3553L733.992 12.7672L736.094 14.2623L734.692 12.0184L738.055 11.1213L734.693 10.223L736.094 7.97976L733.992 9.47614L733.151 5.88471ZM1107.1 10.5167L1106.25 14.1067L1104.15 12.6117L1105.55 14.8549L1102.19 15.752L1105.55 16.649L1104.15 18.8922L1106.25 17.3972L1107.1 20.9873L1107.94 17.3972L1110.04 18.8922L1108.64 16.649L1112 15.752L1108.64 14.8549L1110.04 12.6117L1107.94 14.1067L1107.1 10.5167ZM1024.45 13.9699L1023.86 16.4835L1022.39 15.4356L1023.37 17.0061L1021.01 17.6348L1023.37 18.2622L1022.39 19.8339L1023.86 18.7868L1024.45 21.2996L1025.03 18.7868L1026.51 19.8339L1025.52 18.2622L1027.88 17.6348L1025.52 17.0061L1026.51 15.4356L1025.03 16.4835L1024.45 13.9699ZM1174.36 19.7539L1173.77 22.2667L1172.3 21.2195L1173.28 22.79L1170.92 23.4187L1173.28 24.0474L1172.3 25.6172L1173.77 24.57L1174.36 27.0835L1174.95 24.57L1176.42 25.6172L1175.44 24.0474L1177.79 23.4187L1175.44 22.79L1176.42 21.2195L1174.95 22.2667L1174.36 19.7539ZM967.307 20.5241L966.72 23.0376L965.249 21.9904L966.23 23.5602L963.874 24.1889L966.23 24.8176L965.249 26.3881L966.72 25.3409L967.307 27.8538L967.896 25.3409L969.367 26.3881L968.387 24.8176L970.742 24.1889L968.387 23.5602L969.367 21.9904L967.896 23.0376L967.307 20.5241ZM896.998 31.9344L896.409 34.4479L894.937 33.4001L895.917 34.9705L893.562 35.5993L895.917 36.228L894.937 37.7984L896.409 36.7506L896.998 39.2641L897.585 36.7506L899.057 37.7984L898.076 36.228L900.431 35.5993L898.076 34.9705L899.057 33.4001L897.585 34.4479L896.998 31.9344ZM695.692 34.5761L695.104 37.0889L693.632 36.0418L694.614 37.6122L692.259 38.2409L694.614 38.8696L693.632 40.4394L695.104 39.3922L695.692 41.9058L696.281 39.3922L697.753 40.4394L696.772 38.8696L699.126 38.2409L696.772 37.6122L697.753 36.0418L696.281 37.0889L695.692 34.5761ZM989.698 31.6454L988.858 35.2355L986.755 33.7385L988.157 35.9817L984.794 36.8807L988.157 37.7777L986.755 40.021L988.858 38.5246L989.698 42.116L990.539 38.5246L992.64 40.021L991.24 37.7777L994.603 36.8807L991.24 35.9817L992.64 33.7385L990.539 35.2355L989.698 31.6454ZM1065.39 43.2627L1064.8 45.7755L1063.33 44.7283L1064.31 46.2988L1061.95 46.9275L1064.31 47.5562L1063.33 49.126L1064.8 48.0788L1065.39 50.5923L1065.98 48.0788L1067.45 49.126L1066.47 47.5562L1068.82 46.9275L1066.47 46.2988L1067.45 44.7283L1065.98 45.7755L1065.39 43.2627ZM847.547 48.9124L846.958 51.4246L845.487 50.3788L846.469 51.9492L844.114 52.5779L846.469 53.2047L845.487 54.7751L846.958 53.7293L847.547 56.2428L848.136 53.7293L849.607 54.7751L848.626 53.2047L850.98 52.5779L848.626 51.9492L849.607 50.3788L848.136 51.4246L847.547 48.9124ZM1161.47 46.9669L1160.63 50.5583L1158.52 49.0613L1159.93 51.3045L1156.56 52.2035L1159.93 53.1005L1158.52 55.3438L1160.63 53.8474L1161.47 57.4388L1162.31 53.8474L1164.41 55.3438L1163.01 53.1005L1166.37 52.2035L1163.01 51.3045L1164.41 49.0613L1162.31 50.5583L1161.47 46.9669ZM757.996 58.4093L757.407 60.9228L755.936 59.8749L756.917 61.4454L754.562 62.0741L756.917 62.7015L755.936 64.2733L757.407 63.2261L757.996 65.7389L758.585 63.2261L760.056 64.2733L759.075 62.7015L761.429 62.0741L759.075 61.4454L760.056 59.8749L758.585 60.9228L757.996 58.4093ZM1125.66 60.8647L1125.07 63.3776L1123.6 62.3304L1124.58 63.9022L1122.22 64.5296L1124.58 65.1583L1123.6 66.7301L1125.07 65.6829L1125.66 68.1944L1126.25 65.6829L1127.72 66.7301L1126.74 65.1583L1129.09 64.5296L1126.74 63.9022L1127.72 62.3304L1126.25 63.3776L1125.66 60.8647ZM638.434 69.0661L637.846 71.5809L636.374 70.5337L637.355 72.1035L635 72.7322L637.355 73.3596L636.374 74.9314L637.846 73.8842L638.434 76.3978L639.022 73.8842L640.494 74.9314L639.513 73.3596L641.867 72.7322L639.514 72.1035L640.494 70.5337L639.022 71.5809L638.434 69.0661ZM982.613 75.4046L982.024 77.9182L980.552 76.871L981.533 78.4408L979.179 79.0695L981.533 79.6989L980.552 81.2686L982.024 80.2215L982.613 82.735L983.202 80.2215L984.673 81.2686L983.691 79.6989L986.046 79.0695L983.693 78.4408L984.673 76.871L983.202 77.9182L982.613 75.4046ZM1032.64 81.9608L1032.05 84.4743L1030.58 83.4264V83.4284L1031.56 84.9989L1029.2 85.6276L1031.56 86.2543L1030.58 87.8248L1032.05 86.7776L1032.64 89.2925L1033.23 86.7776L1034.7 87.8248L1033.72 86.2543L1036.07 85.6276L1033.72 84.9989L1034.7 83.4264L1033.23 84.4743L1032.64 81.9608ZM1212.53 86.5293L1211.94 89.0428L1210.47 87.9957L1211.45 89.5674L1209.1 90.1948L1211.45 90.8235L1210.47 92.3933L1211.94 91.3461L1212.53 93.8597L1213.12 91.3461L1214.59 92.3933L1213.61 90.8235L1215.97 90.1948L1213.61 89.5674L1214.59 87.9957L1213.12 89.0428L1212.53 86.5293ZM672.028 86.9451L671.188 90.5345L669.086 89.0395L670.487 91.2827L667.124 92.1798L670.487 93.0768L669.086 95.3207L671.188 93.8256L672.028 97.4151L672.869 93.8256L674.971 95.3207L673.57 93.0768L676.933 92.1798L673.57 91.2827L674.971 89.0395L672.869 90.5345L672.028 86.9451ZM890.452 90.321L889.865 92.8345L888.392 91.7873L889.373 93.3571L887.019 93.9858L889.373 94.6145L888.392 96.185L889.865 95.1378L890.452 97.6507L891.041 95.1378L892.513 96.185L891.531 94.6145L893.886 93.9858L891.533 93.3571V93.3591L892.513 91.7873L891.041 92.8345L890.452 90.321ZM777.116 91.5904L776.275 95.1805L774.173 93.6855L775.574 95.9287L772.211 96.8257L775.574 97.7227L774.173 99.968L776.275 98.4709L777.116 102.061L777.957 98.4709L780.058 99.968L778.657 97.7227L782.02 96.8257L778.658 95.9287L780.058 93.6855L777.957 95.1805L777.116 91.5904ZM928.5 106.175L927.659 109.765L925.558 108.27L926.96 110.513L923.595 111.412L926.96 112.309L925.558 114.553L927.659 113.056L928.5 116.646L929.342 113.056L931.443 114.553L930.043 112.309L933.404 111.412L930.043 110.513L931.443 108.27L929.342 109.765L928.5 106.175ZM1154.48 114.679L1153.89 117.191L1152.42 116.145L1153.4 117.716L1151.05 118.344L1153.4 118.971L1152.42 120.543L1153.89 119.496L1154.48 122.009L1155.07 119.496L1156.54 120.543L1155.56 118.971L1157.91 118.344L1155.56 117.716L1156.54 116.145L1155.07 117.191L1154.48 114.679ZM1080.86 116.182L1080.02 119.774L1077.92 118.278L1079.32 120.521L1075.96 121.42L1079.32 122.317L1077.92 124.56L1080.02 123.065L1080.86 126.654L1081.7 123.065L1083.81 124.56L1082.41 122.317L1085.77 121.42L1082.41 120.521L1083.81 118.278L1081.7 119.774L1080.86 116.182ZM713.211 125.585L712.622 128.097L711.151 127.05L712.132 128.621L709.777 129.25L712.132 129.877L711.151 131.447V131.449L712.622 130.402L713.211 132.914L713.8 130.402L715.271 131.447L714.29 129.877L716.645 129.25L714.291 128.621L715.271 127.05L713.8 128.097L713.211 125.585ZM819.984 126.116L819.396 128.63L817.924 127.583L818.905 129.153L816.551 129.781L818.905 130.41L817.924 131.98L819.396 130.933L819.984 133.446L820.573 130.933L822.044 131.98L821.065 130.41L823.417 129.781L821.065 129.153L822.044 127.583L820.573 128.63L819.984 126.116ZM847.954 142.138L847.113 145.728L845.012 144.233L846.412 146.476L843.049 147.373L846.412 148.27L845.012 150.514L847.113 149.019L847.954 152.609L848.796 149.019L850.897 150.514L849.497 148.27L852.858 147.373L849.497 146.476L850.897 144.233L848.796 145.728L847.954 142.138ZM1045.42 147.182L1044.83 149.695L1043.36 148.648V148.649L1044.34 150.22L1041.98 150.847L1044.34 151.476L1043.36 153.046L1044.83 151.999L1045.42 154.512L1046 151.999L1047.48 153.046L1046.49 151.476L1048.85 150.847L1046.5 150.22L1047.48 148.648L1046 149.695L1045.42 147.182ZM1102.49 148.725L1101.9 151.238L1100.43 150.191L1101.41 151.763L1099.05 152.392L1101.41 153.018L1100.43 154.589L1101.9 153.542L1102.49 156.057L1103.08 153.542L1104.55 154.589L1103.57 153.018L1105.92 152.392L1103.57 151.763L1104.55 150.191L1103.08 151.238L1102.49 148.725ZM945.523 151.068L944.934 153.581L943.462 152.533L944.443 154.104L942.089 154.732L944.443 155.361L943.462 156.932L944.934 155.884L945.523 158.397L946.112 155.884L947.582 156.932L946.601 155.361L948.956 154.732L946.601 154.104V154.105L947.582 152.533L946.112 153.581L945.523 151.068ZM1184.41 148.151L1183.57 151.74L1181.46 150.244L1182.87 152.489L1179.5 153.386L1182.87 154.283L1181.46 156.526L1183.57 155.031L1184.41 158.622L1185.25 155.031L1187.35 156.526L1185.95 154.283L1189.31 153.386L1185.95 152.489L1187.35 150.244V150.245L1185.25 151.74L1184.41 148.151ZM756.372 162.266L755.783 164.779L754.312 163.73V163.731L755.293 165.302L752.939 165.93L755.293 166.558L754.312 168.13L755.783 167.082L756.372 169.595L756.961 167.082L758.432 168.13L757.452 166.558L759.806 165.93L757.452 165.302L758.432 163.73L756.961 164.779L756.372 162.266ZM891.254 164.817L890.667 167.33L889.194 166.283L890.175 167.853L887.821 168.481L890.175 169.11L889.194 170.681L890.667 169.633L891.254 172.146L891.843 169.633L893.314 170.681L892.334 169.11L894.689 168.481L892.334 167.853L893.314 166.283L891.843 167.33L891.254 164.817ZM958.284 182.33L957.442 185.92L955.341 184.425L956.743 186.668L953.38 187.565L956.743 188.462L955.341 190.705V190.707L957.442 189.21L958.284 192.801L959.124 189.21L961.226 190.705L959.826 188.462L963.188 187.565L959.826 186.668L961.226 184.425L959.124 185.92L958.284 182.33ZM1006.46 192.67L1005.87 195.183L1004.4 194.136L1005.38 195.706L1003.02 196.335L1005.38 196.963L1004.4 198.534L1005.87 197.486L1006.46 200L1007.04 197.486L1008.52 198.534L1007.53 196.963L1009.89 196.335L1007.54 195.706L1008.52 194.136L1007.04 195.183L1006.46 192.67Z" fill="#D5D4F4"/>
  </g>
  <g filter="url(#filter1_d_0_1)">
    <mask id="path-2-outside-1_0_1" maskUnits="userSpaceOnUse" x="4" y="87" width="371" height="58" fill="black">
      <rect fill="white" x="4" y="87" width="371" height="58"/>
      <path d="M5.248 134V89.584H11.264V134H5.248ZM33.92 134V89.584H39.936V134H33.92ZM9.344 113.776V108.272H35.392V113.776H9.344ZM49.4755 134V103.6H55.2355V134H49.4755ZM52.3555 97.52C51.2888 97.52 50.4142 97.1787 49.7315 96.496C49.0488 95.7707 48.7075 94.8747 48.7075 93.808C48.7075 92.784 49.0488 91.9307 49.7315 91.248C50.4142 90.5227 51.2888 90.16 52.3555 90.16C53.4222 90.16 54.2968 90.5227 54.9795 91.248C55.6622 91.9307 56.0035 92.784 56.0035 93.808C56.0035 94.8747 55.6622 95.7707 54.9795 96.496C54.2968 97.1787 53.4222 97.52 52.3555 97.52ZM64.044 141.04L68.012 133.424L70.06 132.912C69.8467 133.381 69.5693 133.765 69.228 134.064C68.9293 134.363 68.5453 134.512 68.076 134.512C67.18 134.512 66.348 134.149 65.58 133.424C64.8547 132.656 64.492 131.717 64.492 130.608C64.492 129.371 64.8973 128.347 65.708 127.536C66.5187 126.683 67.5427 126.256 68.78 126.256C69.8893 126.256 70.8707 126.683 71.724 127.536C72.5773 128.347 73.004 129.371 73.004 130.608C73.004 131.077 72.8973 131.653 72.684 132.336C72.5133 132.976 72.1507 133.808 71.596 134.832L67.372 142.832L64.044 141.04ZM95.6855 134V89.584H101.702V134H95.6855ZM110.65 103.728L114.618 96.112L116.666 95.6C116.452 96.0693 116.175 96.4533 115.834 96.752C115.535 97.0507 115.151 97.2 114.682 97.2C113.786 97.2 112.954 96.8373 112.186 96.112C111.46 95.344 111.098 94.4053 111.098 93.296C111.098 92.1013 111.503 91.0773 112.314 90.224C113.167 89.3707 114.191 88.944 115.385 88.944C116.495 88.944 117.476 89.3707 118.33 90.224C119.183 91.0773 119.61 92.1013 119.61 93.296C119.61 93.7653 119.503 94.3413 119.29 95.024C119.119 95.664 118.756 96.5173 118.202 97.584L113.978 105.52L110.65 103.728ZM124.536 134V103.6H130.297V134H124.536ZM145.081 134V115.632C145.081 113.371 144.377 111.6 142.969 110.32C141.603 108.997 139.875 108.336 137.785 108.336C136.377 108.336 135.118 108.635 134.009 109.232C132.899 109.829 132.003 110.661 131.321 111.728C130.638 112.795 130.297 114.075 130.297 115.568L127.929 114.416C127.929 112.112 128.419 110.107 129.401 108.4C130.425 106.693 131.811 105.371 133.561 104.432C135.31 103.451 137.273 102.96 139.449 102.96C141.582 102.96 143.502 103.429 145.209 104.368C146.958 105.307 148.323 106.629 149.305 108.336C150.329 110.043 150.841 112.069 150.841 114.416V134H145.081ZM165.625 134V115.632C165.625 113.371 164.921 111.6 163.513 110.32C162.147 108.997 160.441 108.336 158.393 108.336C156.985 108.336 155.705 108.635 154.553 109.232C153.443 109.829 152.547 110.661 151.865 111.728C151.182 112.795 150.841 114.075 150.841 115.568L147.577 114.416C147.705 112.069 148.323 110.064 149.433 108.4C150.585 106.693 152.057 105.371 153.849 104.432C155.641 103.451 157.603 102.96 159.737 102.96C161.955 102.96 163.939 103.429 165.689 104.368C167.438 105.307 168.825 106.629 169.849 108.336C170.915 110.043 171.449 112.091 171.449 114.48V134H165.625ZM193.623 134V89.584H199.639V134H193.623ZM197.719 134V128.496H221.527V134H197.719ZM240.679 134.64C237.65 134.64 234.919 133.957 232.487 132.592C230.055 131.184 228.135 129.285 226.727 126.896C225.319 124.507 224.615 121.797 224.615 118.768C224.615 115.781 225.298 113.093 226.663 110.704C228.071 108.315 229.948 106.437 232.295 105.072C234.684 103.664 237.351 102.96 240.295 102.96C243.111 102.96 245.586 103.6 247.719 104.88C249.895 106.16 251.58 107.931 252.775 110.192C254.012 112.453 254.631 115.013 254.631 117.872C254.631 118.299 254.61 118.768 254.567 119.28C254.524 119.749 254.439 120.304 254.311 120.944H228.647V116.144H251.239L249.127 118C249.127 115.952 248.764 114.224 248.039 112.816C247.314 111.365 246.29 110.256 244.967 109.488C243.644 108.677 242.044 108.272 240.167 108.272C238.204 108.272 236.476 108.699 234.983 109.552C233.49 110.405 232.338 111.6 231.527 113.136C230.716 114.672 230.311 116.485 230.311 118.576C230.311 120.709 230.738 122.587 231.591 124.208C232.444 125.787 233.66 127.024 235.239 127.92C236.818 128.773 238.631 129.2 240.679 129.2C242.386 129.2 243.943 128.901 245.351 128.304C246.802 127.707 248.039 126.811 249.063 125.616L252.775 129.392C251.324 131.099 249.532 132.4 247.399 133.296C245.308 134.192 243.068 134.64 240.679 134.64ZM280.368 134L266.16 118.448L280.24 103.6H287.216L271.536 119.984L271.792 116.656L287.792 134H280.368ZM260.911 134V88.304H266.672V134H260.911ZM314.291 134V116.272C314.291 113.968 313.565 112.069 312.115 110.576C310.664 109.083 308.787 108.336 306.483 108.336C304.947 108.336 303.581 108.677 302.387 109.36C301.192 110.043 300.253 110.981 299.571 112.176C298.888 113.371 298.547 114.736 298.547 116.272L296.179 114.928C296.179 112.624 296.691 110.576 297.715 108.784C298.739 106.992 300.168 105.584 302.003 104.56C303.837 103.493 305.907 102.96 308.211 102.96C310.515 102.96 312.541 103.472 314.291 104.496C316.083 105.52 317.491 106.949 318.515 108.784C319.539 110.619 320.051 112.731 320.051 115.12V134H314.291ZM292.786 134V88.304H298.547V134H292.786ZM340.777 134.64C338.004 134.64 335.486 133.957 333.225 132.592C330.964 131.184 329.172 129.285 327.849 126.896C326.569 124.507 325.929 121.819 325.929 118.832C325.929 115.845 326.569 113.157 327.849 110.768C329.172 108.379 330.942 106.48 333.161 105.072C335.422 103.664 337.961 102.96 340.777 102.96C343.081 102.96 345.129 103.451 346.921 104.432C348.756 105.371 350.228 106.693 351.337 108.4C352.446 110.064 353.065 112.005 353.193 114.224V123.376C353.065 125.552 352.446 127.493 351.337 129.2C350.27 130.907 348.82 132.251 346.985 133.232C345.193 134.171 343.124 134.64 340.777 134.64ZM341.737 129.2C344.596 129.2 346.9 128.24 348.649 126.32C350.398 124.357 351.273 121.861 351.273 118.832C351.273 116.741 350.868 114.928 350.057 113.392C349.289 111.813 348.18 110.597 346.729 109.744C345.278 108.848 343.593 108.4 341.673 108.4C339.753 108.4 338.046 108.848 336.553 109.744C335.102 110.64 333.95 111.877 333.097 113.456C332.286 114.992 331.881 116.763 331.881 118.768C331.881 120.816 332.286 122.629 333.097 124.208C333.95 125.744 335.124 126.96 336.617 127.856C338.11 128.752 339.817 129.2 341.737 129.2ZM350.889 134V125.808L351.977 118.384L350.889 111.024V103.6H356.713V134H350.889ZM366.827 119.92L365.995 88.304H372.139L371.307 119.92H366.827ZM369.003 134.64C367.808 134.64 366.827 134.235 366.059 133.424C365.291 132.613 364.907 131.611 364.907 130.416C364.907 129.221 365.291 128.24 366.059 127.472C366.827 126.661 367.808 126.256 369.003 126.256C370.24 126.256 371.243 126.661 372.011 127.472C372.779 128.24 373.163 129.221 373.163 130.416C373.163 131.611 372.779 132.613 372.011 133.424C371.243 134.235 370.24 134.64 369.003 134.64Z"/>
    </mask>
    <path d="M5.248 134V89.584H11.264V134H5.248ZM33.92 134V89.584H39.936V134H33.92ZM9.344 113.776V108.272H35.392V113.776H9.344ZM49.4755 134V103.6H55.2355V134H49.4755ZM52.3555 97.52C51.2888 97.52 50.4142 97.1787 49.7315 96.496C49.0488 95.7707 48.7075 94.8747 48.7075 93.808C48.7075 92.784 49.0488 91.9307 49.7315 91.248C50.4142 90.5227 51.2888 90.16 52.3555 90.16C53.4222 90.16 54.2968 90.5227 54.9795 91.248C55.6622 91.9307 56.0035 92.784 56.0035 93.808C56.0035 94.8747 55.6622 95.7707 54.9795 96.496C54.2968 97.1787 53.4222 97.52 52.3555 97.52ZM64.044 141.04L68.012 133.424L70.06 132.912C69.8467 133.381 69.5693 133.765 69.228 134.064C68.9293 134.363 68.5453 134.512 68.076 134.512C67.18 134.512 66.348 134.149 65.58 133.424C64.8547 132.656 64.492 131.717 64.492 130.608C64.492 129.371 64.8973 128.347 65.708 127.536C66.5187 126.683 67.5427 126.256 68.78 126.256C69.8893 126.256 70.8707 126.683 71.724 127.536C72.5773 128.347 73.004 129.371 73.004 130.608C73.004 131.077 72.8973 131.653 72.684 132.336C72.5133 132.976 72.1507 133.808 71.596 134.832L67.372 142.832L64.044 141.04ZM95.6855 134V89.584H101.702V134H95.6855ZM110.65 103.728L114.618 96.112L116.666 95.6C116.452 96.0693 116.175 96.4533 115.834 96.752C115.535 97.0507 115.151 97.2 114.682 97.2C113.786 97.2 112.954 96.8373 112.186 96.112C111.46 95.344 111.098 94.4053 111.098 93.296C111.098 92.1013 111.503 91.0773 112.314 90.224C113.167 89.3707 114.191 88.944 115.385 88.944C116.495 88.944 117.476 89.3707 118.33 90.224C119.183 91.0773 119.61 92.1013 119.61 93.296C119.61 93.7653 119.503 94.3413 119.29 95.024C119.119 95.664 118.756 96.5173 118.202 97.584L113.978 105.52L110.65 103.728ZM124.536 134V103.6H130.297V134H124.536ZM145.081 134V115.632C145.081 113.371 144.377 111.6 142.969 110.32C141.603 108.997 139.875 108.336 137.785 108.336C136.377 108.336 135.118 108.635 134.009 109.232C132.899 109.829 132.003 110.661 131.321 111.728C130.638 112.795 130.297 114.075 130.297 115.568L127.929 114.416C127.929 112.112 128.419 110.107 129.401 108.4C130.425 106.693 131.811 105.371 133.561 104.432C135.31 103.451 137.273 102.96 139.449 102.96C141.582 102.96 143.502 103.429 145.209 104.368C146.958 105.307 148.323 106.629 149.305 108.336C150.329 110.043 150.841 112.069 150.841 114.416V134H145.081ZM165.625 134V115.632C165.625 113.371 164.921 111.6 163.513 110.32C162.147 108.997 160.441 108.336 158.393 108.336C156.985 108.336 155.705 108.635 154.553 109.232C153.443 109.829 152.547 110.661 151.865 111.728C151.182 112.795 150.841 114.075 150.841 115.568L147.577 114.416C147.705 112.069 148.323 110.064 149.433 108.4C150.585 106.693 152.057 105.371 153.849 104.432C155.641 103.451 157.603 102.96 159.737 102.96C161.955 102.96 163.939 103.429 165.689 104.368C167.438 105.307 168.825 106.629 169.849 108.336C170.915 110.043 171.449 112.091 171.449 114.48V134H165.625ZM193.623 134V89.584H199.639V134H193.623ZM197.719 134V128.496H221.527V134H197.719ZM240.679 134.64C237.65 134.64 234.919 133.957 232.487 132.592C230.055 131.184 228.135 129.285 226.727 126.896C225.319 124.507 224.615 121.797 224.615 118.768C224.615 115.781 225.298 113.093 226.663 110.704C228.071 108.315 229.948 106.437 232.295 105.072C234.684 103.664 237.351 102.96 240.295 102.96C243.111 102.96 245.586 103.6 247.719 104.88C249.895 106.16 251.58 107.931 252.775 110.192C254.012 112.453 254.631 115.013 254.631 117.872C254.631 118.299 254.61 118.768 254.567 119.28C254.524 119.749 254.439 120.304 254.311 120.944H228.647V116.144H251.239L249.127 118C249.127 115.952 248.764 114.224 248.039 112.816C247.314 111.365 246.29 110.256 244.967 109.488C243.644 108.677 242.044 108.272 240.167 108.272C238.204 108.272 236.476 108.699 234.983 109.552C233.49 110.405 232.338 111.6 231.527 113.136C230.716 114.672 230.311 116.485 230.311 118.576C230.311 120.709 230.738 122.587 231.591 124.208C232.444 125.787 233.66 127.024 235.239 127.92C236.818 128.773 238.631 129.2 240.679 129.2C242.386 129.2 243.943 128.901 245.351 128.304C246.802 127.707 248.039 126.811 249.063 125.616L252.775 129.392C251.324 131.099 249.532 132.4 247.399 133.296C245.308 134.192 243.068 134.64 240.679 134.64ZM280.368 134L266.16 118.448L280.24 103.6H287.216L271.536 119.984L271.792 116.656L287.792 134H280.368ZM260.911 134V88.304H266.672V134H260.911ZM314.291 134V116.272C314.291 113.968 313.565 112.069 312.115 110.576C310.664 109.083 308.787 108.336 306.483 108.336C304.947 108.336 303.581 108.677 302.387 109.36C301.192 110.043 300.253 110.981 299.571 112.176C298.888 113.371 298.547 114.736 298.547 116.272L296.179 114.928C296.179 112.624 296.691 110.576 297.715 108.784C298.739 106.992 300.168 105.584 302.003 104.56C303.837 103.493 305.907 102.96 308.211 102.96C310.515 102.96 312.541 103.472 314.291 104.496C316.083 105.52 317.491 106.949 318.515 108.784C319.539 110.619 320.051 112.731 320.051 115.12V134H314.291ZM292.786 134V88.304H298.547V134H292.786ZM340.777 134.64C338.004 134.64 335.486 133.957 333.225 132.592C330.964 131.184 329.172 129.285 327.849 126.896C326.569 124.507 325.929 121.819 325.929 118.832C325.929 115.845 326.569 113.157 327.849 110.768C329.172 108.379 330.942 106.48 333.161 105.072C335.422 103.664 337.961 102.96 340.777 102.96C343.081 102.96 345.129 103.451 346.921 104.432C348.756 105.371 350.228 106.693 351.337 108.4C352.446 110.064 353.065 112.005 353.193 114.224V123.376C353.065 125.552 352.446 127.493 351.337 129.2C350.27 130.907 348.82 132.251 346.985 133.232C345.193 134.171 343.124 134.64 340.777 134.64ZM341.737 129.2C344.596 129.2 346.9 128.24 348.649 126.32C350.398 124.357 351.273 121.861 351.273 118.832C351.273 116.741 350.868 114.928 350.057 113.392C349.289 111.813 348.18 110.597 346.729 109.744C345.278 108.848 343.593 108.4 341.673 108.4C339.753 108.4 338.046 108.848 336.553 109.744C335.102 110.64 333.95 111.877 333.097 113.456C332.286 114.992 331.881 116.763 331.881 118.768C331.881 120.816 332.286 122.629 333.097 124.208C333.95 125.744 335.124 126.96 336.617 127.856C338.11 128.752 339.817 129.2 341.737 129.2ZM350.889 134V125.808L351.977 118.384L350.889 111.024V103.6H356.713V134H350.889ZM366.827 119.92L365.995 88.304H372.139L371.307 119.92H366.827ZM369.003 134.64C367.808 134.64 366.827 134.235 366.059 133.424C365.291 132.613 364.907 131.611 364.907 130.416C364.907 129.221 365.291 128.24 366.059 127.472C366.827 126.661 367.808 126.256 369.003 126.256C370.24 126.256 371.243 126.661 372.011 127.472C372.779 128.24 373.163 129.221 373.163 130.416C373.163 131.611 372.779 132.613 372.011 133.424C371.243 134.235 370.24 134.64 369.003 134.64Z" fill="white"/>
    <path d="M5.248 134H4.248V135H5.248V134ZM5.248 89.584V88.584H4.248V89.584H5.248ZM11.264 89.584H12.264V88.584H11.264V89.584ZM11.264 134V135H12.264V134H11.264ZM33.92 134H32.92V135H33.92V134ZM33.92 89.584V88.584H32.92V89.584H33.92ZM39.936 89.584H40.936V88.584H39.936V89.584ZM39.936 134V135H40.936V134H39.936ZM9.344 113.776H8.344V114.776H9.344V113.776ZM9.344 108.272V107.272H8.344V108.272H9.344ZM35.392 108.272H36.392V107.272H35.392V108.272ZM35.392 113.776V114.776H36.392V113.776H35.392ZM5.248 134H6.248V89.584H5.248H4.248V134H5.248ZM5.248 89.584V90.584H11.264V89.584V88.584H5.248V89.584ZM11.264 89.584H10.264V134H11.264H12.264V89.584H11.264ZM11.264 134V133H5.248V134V135H11.264V134ZM33.92 134H34.92V89.584H33.92H32.92V134H33.92ZM33.92 89.584V90.584H39.936V89.584V88.584H33.92V89.584ZM39.936 89.584H38.936V134H39.936H40.936V89.584H39.936ZM39.936 134V133H33.92V134V135H39.936V134ZM9.344 113.776H10.344V108.272H9.344H8.344V113.776H9.344ZM9.344 108.272V109.272H35.392V108.272V107.272H9.344V108.272ZM35.392 108.272H34.392V113.776H35.392H36.392V108.272H35.392ZM35.392 113.776V112.776H9.344V113.776V114.776H35.392V113.776ZM49.4755 134H48.4755V135H49.4755V134ZM49.4755 103.6V102.6H48.4755V103.6H49.4755ZM55.2355 103.6H56.2355V102.6H55.2355V103.6ZM55.2355 134V135H56.2355V134H55.2355ZM49.7315 96.496L49.0033 97.1814L49.0137 97.1924L49.0244 97.2031L49.7315 96.496ZM49.7315 91.248L50.4386 91.9551L50.4493 91.9444L50.4597 91.9334L49.7315 91.248ZM54.9795 91.248L54.2513 91.9334L54.2617 91.9444L54.2724 91.9551L54.9795 91.248ZM54.9795 96.496L55.6866 97.2031L55.6973 97.1924L55.7077 97.1814L54.9795 96.496ZM49.4755 134H50.4755V103.6H49.4755H48.4755V134H49.4755ZM49.4755 103.6V104.6H55.2355V103.6V102.6H49.4755V103.6ZM55.2355 103.6H54.2355V134H55.2355H56.2355V103.6H55.2355ZM55.2355 134V133H49.4755V134V135H55.2355V134ZM52.3555 97.52V96.52C51.5235 96.52 50.9132 96.2635 50.4386 95.7889L49.7315 96.496L49.0244 97.2031C49.9151 98.0938 51.0541 98.52 52.3555 98.52V97.52ZM49.7315 96.496L50.4597 95.8106C49.9647 95.2847 49.7075 94.6397 49.7075 93.808H48.7075H47.7075C47.7075 95.1096 48.1329 96.2566 49.0033 97.1814L49.7315 96.496ZM48.7075 93.808H49.7075C49.7075 93.0314 49.9557 92.438 50.4386 91.9551L49.7315 91.248L49.0244 90.5409C48.1419 91.4234 47.7075 92.5366 47.7075 93.808H48.7075ZM49.7315 91.248L50.4597 91.9334C50.9389 91.4242 51.5427 91.16 52.3555 91.16V90.16V89.16C51.035 89.16 49.8894 89.6211 49.0033 90.5626L49.7315 91.248ZM52.3555 90.16V91.16C53.1683 91.16 53.7721 91.4242 54.2513 91.9334L54.9795 91.248L55.7077 90.5626C54.8216 89.6211 53.6761 89.16 52.3555 89.16V90.16ZM54.9795 91.248L54.2724 91.9551C54.7553 92.438 55.0035 93.0314 55.0035 93.808H56.0035H57.0035C57.0035 92.5366 56.5691 91.4234 55.6866 90.5409L54.9795 91.248ZM56.0035 93.808H55.0035C55.0035 94.6397 54.7463 95.2847 54.2513 95.8106L54.9795 96.496L55.7077 97.1814C56.5781 96.2566 57.0035 95.1096 57.0035 93.808H56.0035ZM54.9795 96.496L54.2724 95.7889C53.7978 96.2635 53.1875 96.52 52.3555 96.52V97.52V98.52C53.6569 98.52 54.7959 98.0938 55.6866 97.2031L54.9795 96.496ZM64.044 141.04L63.1572 140.578L62.7013 141.453L63.5699 141.92L64.044 141.04ZM68.012 133.424L67.7695 132.454L67.333 132.563L67.1252 132.962L68.012 133.424ZM70.06 132.912L70.9704 133.326L71.8279 131.439L69.8175 131.942L70.06 132.912ZM69.228 134.064L68.5695 133.311L68.5444 133.333L68.5209 133.357L69.228 134.064ZM65.58 133.424L64.853 134.111L64.8726 134.131L64.8934 134.151L65.58 133.424ZM65.708 127.536L66.4151 128.243L66.4242 128.234L66.433 128.225L65.708 127.536ZM71.724 127.536L71.0169 128.243L71.026 128.252L71.0352 128.261L71.724 127.536ZM72.684 132.336L71.7295 132.038L71.7232 132.058L71.7178 132.078L72.684 132.336ZM71.596 134.832L70.7167 134.356L70.7117 134.365L71.596 134.832ZM67.372 142.832L66.8979 143.712L67.7856 144.19L68.2563 143.299L67.372 142.832ZM64.044 141.04L64.9308 141.502L68.8988 133.886L68.012 133.424L67.1252 132.962L63.1572 140.578L64.044 141.04ZM68.012 133.424L68.2545 134.394L70.3025 133.882L70.06 132.912L69.8175 131.942L67.7695 132.454L68.012 133.424ZM70.06 132.912L69.1496 132.498C68.9871 132.856 68.79 133.118 68.5695 133.311L69.228 134.064L69.8865 134.817C70.3487 134.412 70.7062 133.907 70.9704 133.326L70.06 132.912ZM69.228 134.064L68.5209 133.357C68.4314 133.446 68.3124 133.512 68.076 133.512V134.512V135.512C68.7783 135.512 69.4272 135.279 69.9351 134.771L69.228 134.064ZM68.076 134.512V133.512C67.4802 133.512 66.8844 133.28 66.2666 132.697L65.58 133.424L64.8934 134.151C65.8116 135.018 66.8798 135.512 68.076 135.512V134.512ZM65.58 133.424L66.307 132.737C65.7665 132.165 65.492 131.476 65.492 130.608H64.492H63.492C63.492 131.959 63.9429 133.147 64.853 134.111L65.58 133.424ZM64.492 130.608H65.492C65.492 129.613 65.8078 128.85 66.4151 128.243L65.708 127.536L65.0009 126.829C63.9869 127.843 63.492 129.129 63.492 130.608H64.492ZM65.708 127.536L66.433 128.225C67.0443 127.581 67.801 127.256 68.78 127.256V126.256V125.256C67.2843 125.256 65.993 125.784 64.983 126.847L65.708 127.536ZM68.78 126.256V127.256C69.5995 127.256 70.3329 127.559 71.0169 128.243L71.724 127.536L72.4311 126.829C71.4084 125.806 70.1792 125.256 68.78 125.256V126.256ZM71.724 127.536L71.0352 128.261C71.6787 128.872 72.004 129.629 72.004 130.608H73.004H74.004C74.004 129.112 73.476 127.821 72.4128 126.811L71.724 127.536ZM73.004 130.608H72.004C72.004 130.938 71.9267 131.407 71.7295 132.038L72.684 132.336L73.6385 132.634C73.8679 131.9 74.004 131.217 74.004 130.608H73.004ZM72.684 132.336L71.7178 132.078C71.5771 132.606 71.2576 133.357 70.7167 134.356L71.596 134.832L72.4753 135.308C73.0438 134.259 73.4496 133.346 73.6502 132.594L72.684 132.336ZM71.596 134.832L70.7117 134.365L66.4877 142.365L67.372 142.832L68.2563 143.299L72.4803 135.299L71.596 134.832ZM67.372 142.832L67.8461 141.952L64.5181 140.16L64.044 141.04L63.5699 141.92L66.8979 143.712L67.372 142.832ZM95.6855 134H94.6855V135H95.6855V134ZM95.6855 89.584V88.584H94.6855V89.584H95.6855ZM101.701 89.584H102.701V88.584H101.701V89.584ZM101.701 134V135H102.701V134H101.701ZM95.6855 134H96.6855V89.584H95.6855H94.6855V134H95.6855ZM95.6855 89.584V90.584H101.701V89.584V88.584H95.6855V89.584ZM101.701 89.584H100.701V134H101.701H102.701V89.584H101.701ZM101.701 134V133H95.6855V134V135H101.701V134ZM110.649 103.728L109.763 103.266L109.307 104.141L110.175 104.608L110.649 103.728ZM114.618 96.112L114.375 95.1419L113.939 95.251L113.731 95.6499L114.618 96.112ZM116.665 95.6L117.576 96.0138L118.433 94.1272L116.423 94.6299L116.665 95.6ZM115.834 96.752L115.175 95.9994L115.15 96.0213L115.126 96.0449L115.834 96.752ZM112.186 96.112L111.458 96.7986L111.478 96.8194L111.499 96.839L112.186 96.112ZM112.313 90.224L111.606 89.5169L111.597 89.526L111.589 89.5352L112.313 90.224ZM118.329 90.224L117.622 90.9311V90.9311L118.329 90.224ZM119.289 95.024L118.335 94.7257L118.329 94.7459L118.323 94.7663L119.289 95.024ZM118.201 97.584L119.084 98.0539L119.089 98.0454L118.201 97.584ZM113.978 105.52L113.503 106.4L114.388 106.877L114.86 105.99L113.978 105.52ZM110.649 103.728L111.536 104.19L115.504 96.5741L114.618 96.112L113.731 95.6499L109.763 103.266L110.649 103.728ZM114.618 96.112L114.86 97.0821L116.908 96.5701L116.665 95.6L116.423 94.6299L114.375 95.1419L114.618 96.112ZM116.665 95.6L115.755 95.1862C115.593 95.5437 115.396 95.8065 115.175 95.9994L115.834 96.752L116.492 97.5046C116.954 97.1002 117.312 96.595 117.576 96.0138L116.665 95.6ZM115.834 96.752L115.126 96.0449C115.037 96.1344 114.918 96.2 114.682 96.2V97.2V98.2C115.384 98.2 116.033 97.967 116.541 97.4591L115.834 96.752ZM114.682 97.2V96.2C114.086 96.2 113.49 95.9685 112.872 95.385L112.186 96.112L111.499 96.839C112.417 97.7062 113.485 98.2 114.682 98.2V97.2ZM112.186 96.112L112.913 95.4254C112.372 94.853 112.098 94.1641 112.098 93.296H111.098H110.098C110.098 94.6465 110.548 95.835 111.458 96.7986L112.186 96.112ZM111.098 93.296H112.098C112.098 92.3534 112.407 91.5772 113.038 90.9127L112.313 90.224L111.589 89.5352C110.598 90.5775 110.098 91.8493 110.098 93.296H111.098ZM112.313 90.224L113.021 90.9311C113.689 90.2632 114.459 89.944 115.385 89.944V88.944V87.944C113.923 87.944 112.645 88.4782 111.606 89.5169L112.313 90.224ZM115.385 88.944V89.944C116.205 89.944 116.938 90.2471 117.622 90.9311L118.329 90.224L119.037 89.5169C118.014 88.4942 116.785 87.944 115.385 87.944V88.944ZM118.329 90.224L117.622 90.9311C118.29 91.599 118.609 92.3696 118.609 93.296H119.609H120.609C120.609 91.8331 120.075 90.5556 119.037 89.5169L118.329 90.224ZM119.609 93.296H118.609C118.609 93.6259 118.532 94.0946 118.335 94.7257L119.289 95.024L120.244 95.3223C120.473 94.588 120.609 93.9048 120.609 93.296H119.609ZM119.289 95.024L118.323 94.7663C118.181 95.3005 117.858 96.0775 117.314 97.1226L118.201 97.584L119.089 98.0454C119.655 96.9572 120.057 96.0275 120.256 95.2817L119.289 95.024ZM118.201 97.584L117.319 97.1142L113.095 105.05L113.978 105.52L114.86 105.99L119.084 98.0538L118.201 97.584ZM113.978 105.52L114.452 104.64L111.124 102.848L110.649 103.728L110.175 104.608L113.503 106.4L113.978 105.52ZM124.536 134H123.536V135H124.536V134ZM124.536 103.6V102.6H123.536V103.6H124.536ZM130.296 103.6H131.296V102.6H130.296V103.6ZM130.296 134V135H131.296V134H130.296ZM145.081 134H144.081V135H145.081V134ZM142.969 110.32L142.273 111.038L142.284 111.049L142.296 111.06L142.969 110.32ZM134.008 109.232L134.483 110.112L134.008 109.232ZM130.296 115.568L129.859 116.467L131.296 117.167V115.568H130.296ZM127.928 114.416H126.928V115.042L127.491 115.315L127.928 114.416ZM129.4 108.4L128.543 107.886L128.538 107.893L128.534 107.902L129.4 108.4ZM133.561 104.432L134.033 105.313L134.042 105.309L134.05 105.304L133.561 104.432ZM145.208 104.368L144.727 105.244L144.736 105.249L145.208 104.368ZM149.305 108.336L148.438 108.834L148.442 108.843L148.447 108.85L149.305 108.336ZM150.84 134V135H151.84V134H150.84ZM165.624 134H164.624V135H165.624V134ZM163.512 110.32L162.817 111.038L162.828 111.049L162.84 111.06L163.512 110.32ZM154.553 109.232L154.092 108.344L154.085 108.348L154.078 108.352L154.553 109.232ZM151.865 111.728L152.707 112.267L151.865 111.728ZM150.84 115.568L150.508 116.511L151.84 116.981V115.568H150.84ZM147.577 114.416L146.578 114.362L146.537 115.11L147.244 115.359L147.577 114.416ZM149.432 108.4L148.604 107.841L148.6 107.845L149.432 108.4ZM153.849 104.432L154.313 105.318L154.321 105.314L154.329 105.309L153.849 104.432ZM165.689 104.368L166.161 103.487L165.689 104.368ZM169.849 108.336L168.991 108.85L168.996 108.858L169.001 108.866L169.849 108.336ZM171.449 134V135H172.449V134H171.449ZM124.536 134H125.536V103.6H124.536H123.536V134H124.536ZM124.536 103.6V104.6H130.296V103.6V102.6H124.536V103.6ZM130.296 103.6H129.296V134H130.296H131.296V103.6H130.296ZM130.296 134V133H124.536V134V135H130.296V134ZM145.081 134H146.081V115.632H145.081H144.081V134H145.081ZM145.081 115.632H146.081C146.081 113.147 145.297 111.085 143.641 109.58L142.969 110.32L142.296 111.06C143.456 112.115 144.081 113.595 144.081 115.632H145.081ZM142.969 110.32L143.664 109.602C142.093 108.08 140.107 107.336 137.785 107.336V108.336V109.336C139.644 109.336 141.113 109.915 142.273 111.038L142.969 110.32ZM137.785 108.336V107.336C136.231 107.336 134.806 107.667 133.534 108.352L134.008 109.232L134.483 110.112C135.43 109.602 136.522 109.336 137.785 109.336V108.336ZM134.008 109.232L133.534 108.352C132.274 109.03 131.252 109.98 130.478 111.189L131.32 111.728L132.163 112.267C132.754 111.343 133.524 110.629 134.483 110.112L134.008 109.232ZM131.32 111.728L130.478 111.189C129.675 112.444 129.296 113.918 129.296 115.568H130.296H131.296C131.296 114.231 131.6 113.146 132.163 112.267L131.32 111.728ZM130.296 115.568L130.734 114.669L128.366 113.517L127.928 114.416L127.491 115.315L129.859 116.467L130.296 115.568ZM127.928 114.416H128.928C128.928 112.257 129.387 110.429 130.267 108.898L129.4 108.4L128.534 107.902C127.451 109.784 126.928 111.967 126.928 114.416H127.928ZM129.4 108.4L130.258 108.914C131.189 107.362 132.443 106.166 134.033 105.313L133.561 104.432L133.088 103.551C131.179 104.575 129.66 106.025 128.543 107.886L129.4 108.4ZM133.561 104.432L134.05 105.304C135.637 104.414 137.429 103.96 139.449 103.96V102.96V101.96C137.116 101.96 134.983 102.488 133.071 103.56L133.561 104.432ZM139.449 102.96V103.96C141.43 103.96 143.181 104.394 144.727 105.244L145.208 104.368L145.69 103.492C143.822 102.464 141.734 101.96 139.449 101.96V102.96ZM145.208 104.368L144.736 105.249C146.322 106.1 147.55 107.291 148.438 108.834L149.305 108.336L150.171 107.838C149.096 105.968 147.594 104.513 145.681 103.487L145.208 104.368ZM149.305 108.336L148.447 108.85C149.362 110.376 149.84 112.218 149.84 114.416H150.84H151.84C151.84 111.921 151.295 109.709 150.162 107.822L149.305 108.336ZM150.84 114.416H149.84V134H150.84H151.84V114.416H150.84ZM150.84 134V133H145.081V134V135H150.84V134ZM165.624 134H166.624V115.632H165.624H164.624V134H165.624ZM165.624 115.632H166.624C166.624 113.147 165.841 111.085 164.185 109.58L163.512 110.32L162.84 111.06C164 112.115 164.624 113.595 164.624 115.632H165.624ZM163.512 110.32L164.208 109.602C162.641 108.084 160.678 107.336 158.393 107.336V108.336V109.336C160.203 109.336 161.653 109.911 162.817 111.038L163.512 110.32ZM158.393 108.336V107.336C156.838 107.336 155.398 107.667 154.092 108.344L154.553 109.232L155.013 110.12C156.011 109.602 157.131 109.336 158.393 109.336V108.336ZM154.553 109.232L154.078 108.352C152.818 109.03 151.796 109.98 151.022 111.189L151.865 111.728L152.707 112.267C153.298 111.343 154.068 110.629 155.027 110.112L154.553 109.232ZM151.865 111.728L151.022 111.189C150.219 112.444 149.84 113.918 149.84 115.568H150.84H151.84C151.84 114.231 152.144 113.146 152.707 112.267L151.865 111.728ZM150.84 115.568L151.173 114.625L147.909 113.473L147.577 114.416L147.244 115.359L150.508 116.511L150.84 115.568ZM147.577 114.416L148.575 114.47C148.695 112.271 149.271 110.446 150.265 108.955L149.432 108.4L148.6 107.845C147.376 109.682 146.714 111.868 146.578 114.362L147.577 114.416ZM149.432 108.4L150.261 108.959C151.322 107.388 152.67 106.178 154.313 105.318L153.849 104.432L153.384 103.546C151.443 104.563 149.847 105.999 148.604 107.841L149.432 108.4ZM153.849 104.432L154.329 105.309C155.967 104.412 157.763 103.96 159.737 103.96V102.96V101.96C157.443 101.96 155.314 102.489 153.368 103.555L153.849 104.432ZM159.737 102.96V103.96C161.81 103.96 163.628 104.397 165.216 105.249L165.689 104.368L166.161 103.487C164.25 102.461 162.1 101.96 159.737 101.96V102.96ZM165.689 104.368L165.216 105.249C166.806 106.102 168.06 107.298 168.991 108.85L169.849 108.336L170.706 107.822C169.589 105.961 168.07 104.511 166.161 103.487L165.689 104.368ZM169.849 108.336L169.001 108.866C169.951 110.386 170.449 112.243 170.449 114.48H171.449H172.449C172.449 111.939 171.88 109.699 170.697 107.806L169.849 108.336ZM171.449 114.48H170.449V134H171.449H172.449V114.48H171.449ZM171.449 134V133H165.624V134V135H171.449V134ZM193.623 134H192.623V135H193.623V134ZM193.623 89.584V88.584H192.623V89.584H193.623ZM199.639 89.584H200.639V88.584H199.639V89.584ZM199.639 134V135H200.639V134H199.639ZM197.719 134H196.719V135H197.719V134ZM197.719 128.496V127.496H196.719V128.496H197.719ZM221.527 128.496H222.527V127.496H221.527V128.496ZM221.527 134V135H222.527V134H221.527ZM193.623 134H194.623V89.584H193.623H192.623V134H193.623ZM193.623 89.584V90.584H199.639V89.584V88.584H193.623V89.584ZM199.639 89.584H198.639V134H199.639H200.639V89.584H199.639ZM199.639 134V133H193.623V134V135H199.639V134ZM197.719 134H198.719V128.496H197.719H196.719V134H197.719ZM197.719 128.496V129.496H221.527V128.496V127.496H197.719V128.496ZM221.527 128.496H220.527V134H221.527H222.527V128.496H221.527ZM221.527 134V133H197.719V134V135H221.527V134ZM232.487 132.592L231.986 133.458L231.997 133.464L232.487 132.592ZM226.727 126.896L227.589 126.388L226.727 126.896ZM226.663 110.704L225.801 110.196L225.795 110.208L226.663 110.704ZM232.295 105.072L232.798 105.936L232.803 105.934L232.295 105.072ZM247.719 104.88L247.204 105.738L247.212 105.742L247.719 104.88ZM252.775 110.192L251.891 110.659L251.894 110.666L251.898 110.672L252.775 110.192ZM254.567 119.28L255.563 119.371L255.564 119.363L254.567 119.28ZM254.311 120.944V121.944H255.131L255.292 121.14L254.311 120.944ZM228.647 120.944H227.647V121.944H228.647V120.944ZM228.647 116.144V115.144H227.647V116.144H228.647ZM251.239 116.144L251.899 116.895L253.892 115.144H251.239V116.144ZM249.127 118H248.127V120.21L249.787 118.751L249.127 118ZM248.039 112.816L247.145 113.263L247.15 113.274L248.039 112.816ZM244.967 109.488L244.444 110.341L244.455 110.347L244.465 110.353L244.967 109.488ZM234.983 109.552L234.487 108.684L234.983 109.552ZM231.527 113.136L232.411 113.603V113.603L231.527 113.136ZM231.591 124.208L230.706 124.674L230.711 124.684L231.591 124.208ZM235.239 127.92L234.745 128.79L234.754 128.795L234.763 128.8L235.239 127.92ZM245.351 128.304L244.97 127.379L244.96 127.383L245.351 128.304ZM249.063 125.616L249.776 124.915L249.013 124.138L248.304 124.965L249.063 125.616ZM252.775 129.392L253.537 130.04L254.129 129.343L253.488 128.691L252.775 129.392ZM247.399 133.296L247.012 132.374L247.005 132.377L247.399 133.296ZM240.679 134.64V133.64C237.806 133.64 235.246 132.994 232.977 131.72L232.487 132.592L231.997 133.464C234.592 134.92 237.493 135.64 240.679 135.64V134.64ZM232.487 132.592L232.988 131.727C230.703 130.404 228.908 128.627 227.589 126.388L226.727 126.896L225.865 127.404C227.362 129.943 229.407 131.964 231.986 133.457L232.487 132.592ZM226.727 126.896L227.589 126.388C226.279 124.167 225.615 121.636 225.615 118.768H224.615H223.615C223.615 121.959 224.359 124.847 225.865 127.404L226.727 126.896ZM224.615 118.768H225.615C225.615 115.94 226.26 113.426 227.531 111.2L226.663 110.704L225.795 110.208C224.336 112.761 223.615 115.623 223.615 118.768H224.615ZM226.663 110.704L227.525 111.212C228.847 108.967 230.603 107.214 232.798 105.936L232.295 105.072L231.792 104.208C229.294 105.661 227.295 107.663 225.801 110.196L226.663 110.704ZM232.295 105.072L232.803 105.934C235.029 104.622 237.518 103.96 240.295 103.96V102.96V101.96C237.184 101.96 234.34 102.706 231.787 104.21L232.295 105.072ZM240.295 102.96V103.96C242.954 103.96 245.246 104.563 247.205 105.737L247.719 104.88L248.233 104.023C245.925 102.637 243.268 101.96 240.295 101.96V102.96ZM247.719 104.88L247.212 105.742C249.226 106.927 250.782 108.56 251.891 110.659L252.775 110.192L253.659 109.725C252.379 107.302 250.564 105.393 248.226 104.018L247.719 104.88ZM252.775 110.192L251.898 110.672C253.046 112.771 253.631 115.162 253.631 117.872H254.631H255.631C255.631 114.864 254.979 112.136 253.652 109.712L252.775 110.192ZM254.631 117.872H253.631C253.631 118.266 253.611 118.707 253.57 119.197L254.567 119.28L255.564 119.363C255.608 118.829 255.631 118.331 255.631 117.872H254.631ZM254.567 119.28L253.571 119.189C253.533 119.613 253.454 120.131 253.33 120.748L254.311 120.944L255.292 121.14C255.424 120.477 255.516 119.886 255.563 119.371L254.567 119.28ZM254.311 120.944V119.944H228.647V120.944V121.944H254.311V120.944ZM228.647 120.944H229.647V116.144H228.647H227.647V120.944H228.647ZM228.647 116.144V117.144H251.239V116.144V115.144H228.647V116.144ZM251.239 116.144L250.579 115.393L248.467 117.249L249.127 118L249.787 118.751L251.899 116.895L251.239 116.144ZM249.127 118H250.127C250.127 115.838 249.744 113.943 248.928 112.358L248.039 112.816L247.15 113.274C247.784 114.505 248.127 116.066 248.127 118H249.127ZM248.039 112.816L248.933 112.369C248.126 110.755 246.971 109.495 245.469 108.623L244.967 109.488L244.465 110.353C245.608 111.017 246.501 111.976 247.145 113.263L248.039 112.816ZM244.967 109.488L245.49 108.635C243.979 107.71 242.19 107.272 240.167 107.272V108.272V109.272C241.899 109.272 243.309 109.645 244.444 110.341L244.967 109.488ZM240.167 108.272V107.272C238.055 107.272 236.152 107.732 234.487 108.684L234.983 109.552L235.479 110.42C236.801 109.665 238.353 109.272 240.167 109.272V108.272ZM234.983 109.552L234.487 108.684C232.827 109.632 231.541 110.967 230.643 112.669L231.527 113.136L232.411 113.603C233.134 112.233 234.152 111.178 235.479 110.42L234.983 109.552ZM231.527 113.136L230.643 112.669C229.742 114.376 229.311 116.356 229.311 118.576H230.311H231.311C231.311 116.615 231.691 114.968 232.411 113.603L231.527 113.136ZM230.311 118.576H229.311C229.311 120.845 229.766 122.887 230.706 124.674L231.591 124.208L232.476 123.742C231.71 122.286 231.311 120.574 231.311 118.576H230.311ZM231.591 124.208L230.711 124.684C231.655 126.429 233.006 127.802 234.745 128.79L235.239 127.92L235.733 127.05C234.315 126.246 233.234 125.144 232.471 123.732L231.591 124.208ZM235.239 127.92L234.763 128.8C236.508 129.743 238.489 130.2 240.679 130.2V129.2V128.2C238.773 128.2 237.128 127.804 235.715 127.04L235.239 127.92ZM240.679 129.2V130.2C242.504 130.2 244.196 129.88 245.742 129.225L245.351 128.304L244.96 127.383C243.69 127.923 242.267 128.2 240.679 128.2V129.2ZM245.351 128.304L245.732 129.229C247.329 128.571 248.696 127.581 249.822 126.267L249.063 125.616L248.304 124.965C247.382 126.04 246.274 126.842 244.97 127.379L245.351 128.304ZM249.063 125.616L248.35 126.317L252.062 130.093L252.775 129.392L253.488 128.691L249.776 124.915L249.063 125.616ZM252.775 129.392L252.013 128.744C250.667 130.327 249.005 131.537 247.012 132.374L247.399 133.296L247.786 134.218C250.059 133.263 251.981 131.87 253.537 130.04L252.775 129.392ZM247.399 133.296L247.005 132.377C245.045 133.217 242.94 133.64 240.679 133.64V134.64V135.64C243.197 135.64 245.572 135.167 247.793 134.215L247.399 133.296ZM280.367 134L279.629 134.674L279.927 135H280.367V134ZM266.159 118.448L265.434 117.76L264.793 118.435L265.421 119.122L266.159 118.448ZM280.24 103.6V102.6H279.81L279.514 102.912L280.24 103.6ZM287.216 103.6L287.938 104.291L289.557 102.6H287.216V103.6ZM271.535 119.984L270.538 119.907L270.324 122.696L272.258 120.675L271.535 119.984ZM271.792 116.656L272.527 115.978L270.97 114.291L270.794 116.579L271.792 116.656ZM287.792 134V135H290.075L288.527 133.322L287.792 134ZM260.911 134H259.911V135H260.911V134ZM260.911 88.304V87.304H259.911V88.304H260.911ZM266.672 88.304H267.672V87.304H266.672V88.304ZM266.672 134V135H267.672V134H266.672ZM280.367 134L281.106 133.326L266.898 117.774L266.159 118.448L265.421 119.122L279.629 134.674L280.367 134ZM266.159 118.448L266.885 119.136L280.965 104.288L280.24 103.6L279.514 102.912L265.434 117.76L266.159 118.448ZM280.24 103.6V104.6H287.216V103.6V102.6H280.24V103.6ZM287.216 103.6L286.493 102.909L270.813 119.293L271.535 119.984L272.258 120.675L287.938 104.291L287.216 103.6ZM271.535 119.984L272.533 120.061L272.789 116.733L271.792 116.656L270.794 116.579L270.538 119.907L271.535 119.984ZM271.792 116.656L271.056 117.334L287.056 134.678L287.792 134L288.527 133.322L272.527 115.978L271.792 116.656ZM287.792 134V133H280.367V134V135H287.792V134ZM260.911 134H261.911V88.304H260.911H259.911V134H260.911ZM260.911 88.304V89.304H266.672V88.304V87.304H260.911V88.304ZM266.672 88.304H265.672V134H266.672H267.672V88.304H266.672ZM266.672 134V133H260.911V134V135H266.672V134ZM314.29 134H313.29V135H314.29V134ZM312.115 110.576L312.832 109.879L312.115 110.576ZM302.387 109.36L301.89 108.492L302.387 109.36ZM298.547 116.272L298.053 117.142L299.547 117.989V116.272H298.547ZM296.178 114.928H295.178V115.51L295.685 115.798L296.178 114.928ZM302.003 104.56L302.49 105.433L302.498 105.429L302.505 105.425L302.003 104.56ZM314.29 104.496L313.785 105.359L313.794 105.364L314.29 104.496ZM318.514 108.784L319.388 108.297L318.514 108.784ZM320.051 134V135H321.051V134H320.051ZM292.786 134H291.786V135H292.786V134ZM292.786 88.304V87.304H291.786V88.304H292.786ZM298.547 88.304H299.547V87.304H298.547V88.304ZM298.547 134V135H299.547V134H298.547ZM314.29 134H315.29V116.272H314.29H313.29V134H314.29ZM314.29 116.272H315.29C315.29 113.738 314.484 111.58 312.832 109.879L312.115 110.576L311.397 111.273C312.647 112.559 313.29 114.198 313.29 116.272H314.29ZM312.115 110.576L312.832 109.879C311.172 108.17 309.025 107.336 306.483 107.336V108.336V109.336C308.548 109.336 310.156 109.995 311.397 111.273L312.115 110.576ZM306.483 108.336V107.336C304.793 107.336 303.253 107.713 301.89 108.492L302.387 109.36L302.883 110.228C303.909 109.642 305.1 109.336 306.483 109.336V108.336ZM302.387 109.36L301.89 108.492C300.541 109.263 299.474 110.33 298.702 111.68L299.57 112.176L300.439 112.672C301.033 111.633 301.843 110.822 302.883 110.228L302.387 109.36ZM299.57 112.176L298.702 111.68C297.924 113.043 297.547 114.583 297.547 116.272H298.547H299.547C299.547 114.889 299.852 113.699 300.439 112.672L299.57 112.176ZM298.547 116.272L299.04 115.402L296.672 114.058L296.178 114.928L295.685 115.798L298.053 117.142L298.547 116.272ZM296.178 114.928H297.178C297.178 112.777 297.655 110.904 298.583 109.28L297.715 108.784L296.846 108.288C295.726 110.248 295.178 112.471 295.178 114.928H296.178ZM297.715 108.784L298.583 109.28C299.515 107.649 300.811 106.37 302.49 105.433L302.003 104.56L301.515 103.687C299.525 104.798 297.962 106.335 296.846 108.288L297.715 108.784ZM302.003 104.56L302.505 105.425C304.174 104.454 306.067 103.96 308.211 103.96V102.96V101.96C305.746 101.96 303.5 102.533 301.5 103.695L302.003 104.56ZM308.211 102.96V103.96C310.362 103.96 312.209 104.436 313.785 105.359L314.29 104.496L314.796 103.633C312.873 102.508 310.667 101.96 308.211 101.96V102.96ZM314.29 104.496L313.794 105.364C315.425 106.296 316.704 107.593 317.641 109.271L318.514 108.784L319.388 108.297C318.277 106.306 316.74 104.744 314.787 103.628L314.29 104.496ZM318.514 108.784L317.641 109.271C318.571 110.938 319.051 112.878 319.051 115.12H320.051H321.051C321.051 112.584 320.506 110.3 319.388 108.297L318.514 108.784ZM320.051 115.12H319.051V134H320.051H321.051V115.12H320.051ZM320.051 134V133H314.29V134V135H320.051V134ZM292.786 134H293.786V88.304H292.786H291.786V134H292.786ZM292.786 88.304V89.304H298.547V88.304V87.304H292.786V88.304ZM298.547 88.304H297.547V134H298.547H299.547V88.304H298.547ZM298.547 134V133H292.786V134V135H298.547V134ZM333.225 132.592L332.696 133.441L332.708 133.448L333.225 132.592ZM327.849 126.896L326.967 127.368L326.974 127.38L327.849 126.896ZM327.849 110.768L326.974 110.284L326.968 110.296L327.849 110.768ZM333.161 105.072L332.632 104.223L332.625 104.228L333.161 105.072ZM346.921 104.432L346.441 105.309L346.453 105.316L346.466 105.322L346.921 104.432ZM351.337 108.4L350.499 108.945L350.505 108.955L351.337 108.4ZM353.193 114.224H354.193V114.195L354.191 114.166L353.193 114.224ZM353.193 123.376L354.191 123.435L354.193 123.405V123.376H353.193ZM351.337 129.2L350.499 128.655L350.494 128.662L350.489 128.67L351.337 129.2ZM346.985 133.232L347.449 134.118L347.457 134.114L346.985 133.232ZM348.649 126.32L349.388 126.994L349.396 126.985L348.649 126.32ZM350.057 113.392L349.158 113.829L349.165 113.844L349.173 113.859L350.057 113.392ZM346.729 109.744L346.204 110.595L346.213 110.6L346.222 110.606L346.729 109.744ZM336.553 109.744L336.038 108.886L336.027 108.893L336.553 109.744ZM333.097 113.456L332.217 112.98L332.213 112.989L333.097 113.456ZM333.097 124.208L332.207 124.665L332.215 124.679L332.223 124.694L333.097 124.208ZM336.617 127.856L336.103 128.713L336.617 127.856ZM350.889 134H349.889V135H350.889V134ZM350.889 125.808L349.9 125.663L349.889 125.735V125.808H350.889ZM351.977 118.384L352.966 118.529L352.988 118.383L352.966 118.238L351.977 118.384ZM350.889 111.024H349.889V111.098L349.9 111.17L350.889 111.024ZM350.889 103.6V102.6H349.889V103.6H350.889ZM356.713 103.6H357.713V102.6H356.713V103.6ZM356.713 134V135H357.713V134H356.713ZM340.777 134.64V133.64C338.176 133.64 335.839 133.002 333.742 131.736L333.225 132.592L332.708 133.448C335.133 134.912 337.831 135.64 340.777 135.64V134.64ZM333.225 132.592L333.754 131.743C331.641 130.427 329.966 128.656 328.724 126.412L327.849 126.896L326.974 127.38C328.377 129.915 330.287 131.941 332.696 133.441L333.225 132.592ZM327.849 126.896L328.73 126.424C327.536 124.194 326.929 121.671 326.929 118.832H325.929H324.929C324.929 121.966 325.602 124.819 326.968 127.368L327.849 126.896ZM325.929 118.832H326.929C326.929 115.993 327.536 113.47 328.73 111.24L327.849 110.768L326.968 110.296C325.602 112.845 324.929 115.698 324.929 118.832H325.929ZM327.849 110.768L328.724 111.252C329.969 109.004 331.625 107.231 333.697 105.916L333.161 105.072L332.625 104.228C330.259 105.729 328.375 107.754 326.974 110.284L327.849 110.768ZM333.161 105.072L333.69 105.921C335.783 104.617 338.137 103.96 340.777 103.96V102.96V101.96C337.785 101.96 335.062 102.711 332.632 104.223L333.161 105.072ZM340.777 102.96V103.96C342.935 103.96 344.814 104.418 346.441 105.309L346.921 104.432L347.401 103.555C345.444 102.483 343.227 101.96 340.777 101.96V102.96ZM346.921 104.432L346.466 105.322C348.147 106.182 349.486 107.387 350.499 108.945L351.337 108.4L352.175 107.855C350.97 106 349.365 104.559 347.376 103.542L346.921 104.432ZM351.337 108.4L350.505 108.955C351.505 110.455 352.076 112.22 352.195 114.282L353.193 114.224L354.191 114.166C354.054 111.79 353.388 109.673 352.169 107.845L351.337 108.4ZM353.193 114.224H352.193V123.376H353.193H354.193V114.224H353.193ZM353.193 123.376L352.195 123.317C352.076 125.333 351.507 127.104 350.499 128.655L351.337 129.2L352.175 129.745C353.386 127.883 354.054 125.771 354.191 123.435L353.193 123.376ZM351.337 129.2L350.489 128.67C349.518 130.223 348.199 131.448 346.513 132.35L346.985 133.232L347.457 134.114C349.44 133.053 351.023 131.59 352.185 129.73L351.337 129.2ZM346.985 133.232L346.521 132.346C344.894 133.199 342.988 133.64 340.777 133.64V134.64V135.64C343.259 135.64 345.492 135.143 347.449 134.118L346.985 133.232ZM341.737 129.2V130.2C344.845 130.2 347.429 129.144 349.388 126.993L348.649 126.32L347.91 125.647C346.37 127.336 344.346 128.2 341.737 128.2V129.2ZM348.649 126.32L349.396 126.985C351.333 124.812 352.273 122.067 352.273 118.832H351.273H350.273C350.273 121.656 349.464 123.903 347.902 125.655L348.649 126.32ZM351.273 118.832H352.273C352.273 116.612 351.842 114.632 350.941 112.925L350.057 113.392L349.173 113.859C349.893 115.224 350.273 116.871 350.273 118.832H351.273ZM350.057 113.392L350.956 112.955C350.106 111.207 348.864 109.84 347.236 108.882L346.729 109.744L346.222 110.606C347.495 111.355 348.472 112.42 349.158 113.829L350.057 113.392ZM346.729 109.744L347.254 108.893C345.627 107.888 343.755 107.4 341.673 107.4V108.4V109.4C343.431 109.4 344.93 109.808 346.204 110.595L346.729 109.744ZM341.673 108.4V107.4C339.591 107.4 337.703 107.888 336.039 108.887L336.553 109.744L337.068 110.601C338.39 109.808 339.915 109.4 341.673 109.4V108.4ZM336.553 109.744L336.027 108.893C334.42 109.886 333.149 111.256 332.217 112.98L333.097 113.456L333.977 113.932C334.751 112.498 335.785 111.394 337.078 110.595L336.553 109.744ZM333.097 113.456L332.213 112.989C331.315 114.69 330.881 116.625 330.881 118.768H331.881H332.881C332.881 116.9 333.258 115.294 333.981 113.923L333.097 113.456ZM331.881 118.768H330.881C330.881 120.95 331.314 122.924 332.207 124.665L333.097 124.208L333.987 123.751C333.259 122.334 332.881 120.682 332.881 118.768H331.881ZM333.097 124.208L332.223 124.694C333.161 126.382 334.457 127.726 336.103 128.713L336.617 127.856L337.132 126.999C335.79 126.194 334.74 125.106 333.971 123.722L333.097 124.208ZM336.617 127.856L336.103 128.713C337.767 129.712 339.655 130.2 341.737 130.2V129.2V128.2C339.979 128.2 338.454 127.792 337.132 126.999L336.617 127.856ZM350.889 134H351.889V125.808H350.889H349.889V134H350.889ZM350.889 125.808L351.878 125.953L352.966 118.529L351.977 118.384L350.988 118.239L349.9 125.663L350.889 125.808ZM351.977 118.384L352.966 118.238L351.878 110.878L350.889 111.024L349.9 111.17L350.988 118.53L351.977 118.384ZM350.889 111.024H351.889V103.6H350.889H349.889V111.024H350.889ZM350.889 103.6V104.6H356.713V103.6V102.6H350.889V103.6ZM356.713 103.6H355.713V134H356.713H357.713V103.6H356.713ZM356.713 134V133H350.889V134V135H356.713V134ZM366.827 119.92L365.827 119.946L365.853 120.92H366.827V119.92ZM365.995 88.304V87.304H364.968L364.995 88.3303L365.995 88.304ZM372.139 88.304L373.139 88.3303L373.166 87.304H372.139V88.304ZM371.307 119.92V120.92H372.281L372.307 119.946L371.307 119.92ZM366.059 133.424L365.333 134.112L366.059 133.424ZM366.059 127.472L366.766 128.179L366.776 128.17L366.785 128.16L366.059 127.472ZM372.011 127.472L371.285 128.16L371.294 128.17L371.304 128.179L372.011 127.472ZM372.011 133.424L372.737 134.112L372.011 133.424ZM366.827 119.92L367.827 119.894L366.995 88.2777L365.995 88.304L364.995 88.3303L365.827 119.946L366.827 119.92ZM365.995 88.304V89.304H372.139V88.304V87.304H365.995V88.304ZM372.139 88.304L371.139 88.2777L370.307 119.894L371.307 119.92L372.307 119.946L373.139 88.3303L372.139 88.304ZM371.307 119.92V118.92H366.827V119.92V120.92H371.307V119.92ZM369.003 134.64V133.64C368.062 133.64 367.35 133.333 366.785 132.736L366.059 133.424L365.333 134.112C366.304 135.137 367.555 135.64 369.003 135.64V134.64ZM366.059 133.424L366.785 132.736C366.206 132.125 365.907 131.374 365.907 130.416H364.907H363.907C363.907 131.847 364.376 133.102 365.333 134.112L366.059 133.424ZM364.907 130.416H365.907C365.907 129.457 366.205 128.74 366.766 128.179L366.059 127.472L365.352 126.765C364.377 127.74 363.907 128.985 363.907 130.416H364.907ZM366.059 127.472L366.785 128.16C367.35 127.563 368.062 127.256 369.003 127.256V126.256V125.256C367.555 125.256 366.304 125.759 365.333 126.784L366.059 127.472ZM369.003 126.256V127.256C369.999 127.256 370.727 127.571 371.285 128.16L372.011 127.472L372.737 126.784C371.759 125.752 370.482 125.256 369.003 125.256V126.256ZM372.011 127.472L371.304 128.179C371.865 128.74 372.163 129.457 372.163 130.416H373.163H374.163C374.163 128.985 373.693 127.74 372.718 126.765L372.011 127.472ZM373.163 130.416H372.163C372.163 131.374 371.864 132.125 371.285 132.736L372.011 133.424L372.737 134.112C373.694 133.102 374.163 131.847 374.163 130.416H373.163ZM372.011 133.424L371.285 132.736C370.727 133.325 369.999 133.64 369.003 133.64V134.64V135.64C370.482 135.64 371.759 135.144 372.737 134.112L372.011 133.424Z" fill="#F8CD19" mask="url(#path-2-outside-1_0_1)"/>
    <animateMotion path="M 34.477 -12.929 L 747.153 -14.365" dur="8s" keyTimes="0;0.5;0.625;1" keyPoints="0;1;1;1" calcMode="linear" repeatCount="indefinite" />
    <animate attributeName="opacity" values="1;1;1;0" keyTimes="0;0.5;0.625;1" dur="8s" repeatCount="indefinite" />
  </g>
  <g>
    <path d="M577.192 97.1726C577.192 97.1726 523.17 88.1745 495.706 80.8391C495.706 80.8391 543.178 88.285 548.622 88.8503C548.622 88.8503 521.276 82.4782 508.578 76.8705C508.578 76.8705 549.773 87.8738 555.059 88.2985C555.059 88.2985 517.758 74.1877 508.727 68.4176C508.727 68.4176 548.126 82.3979 577.192 97.1726Z" fill="#F8CD19"/>
    <path d="M596.353 102.878C596.353 102.878 540.536 112.344 424.651 107.231L491.634 103.883C491.634 103.883 420.235 103.349 407.084 101.662L475.445 100.482L414.269 96.1453L540.389 97.3261L443.48 89.5475C443.48 89.5475 524.232 86.4631 596.353 102.878Z" fill="#EBE224"/>
    <path d="M578.736 107.718C578.736 107.718 537.519 119.446 507.713 118.292L578.736 107.718Z" fill="#EBE224"/>
    <path d="M577.146 106.818C577.146 106.818 547.397 112.745 517.592 111.591L577.146 106.818Z" fill="#EBE224"/>
    <path d="M526.554 87.0353C526.554 87.0353 556.773 89.1193 576.319 97.0732L526.554 87.0353Z" fill="#EBE224"/>
    <path d="M504.174 105.528C504.174 105.528 469.543 110.707 445.509 106.628L504.174 105.528Z" fill="#F4E74C"/>
    <path d="M588.568 102.6C588.568 102.6 552.671 110.13 514.389 104.598L588.568 102.6Z" fill="#F4E74C"/>
    <path d="M558.359 99.9673C558.359 99.9673 485.993 98.0953 474.619 98.2915C474.619 98.2915 516.841 93.2227 558.359 99.9673Z" fill="#F4E74C"/>
    <path d="M577.115 108.708L580.941 101.975C581.378 101.207 581.411 100.276 581.031 99.4851L577.697 92.5529C576.739 90.5615 578.483 88.3136 580.648 88.7491L588.184 90.2648C589.043 90.4378 589.936 90.1742 590.572 89.5608L596.141 84.182C597.741 82.6372 600.397 83.588 600.636 85.7908L601.467 93.4609C601.562 94.3358 602.08 95.1043 602.853 95.5159L609.629 99.1241C611.576 100.16 611.474 102.996 609.456 103.922L602.434 107.147C601.633 107.515 601.06 108.253 600.903 109.121L599.522 116.73C599.125 118.915 596.405 119.717 594.92 118.086L589.749 112.409C589.159 111.761 588.287 111.449 587.416 111.574L579.786 112.668C577.595 112.983 576.016 110.643 577.115 108.708Z" fill="#F9DA19"/>
    <path d="M580.647 88.7468C578.482 88.3123 576.741 90.561 577.698 92.5535L581.029 99.4854C581.412 100.278 581.376 101.209 580.942 101.974L577.115 108.71C576.075 110.541 577.439 112.734 579.447 112.693C580.675 109.737 582.746 107.093 585.586 105.153C586.036 104.845 586.496 104.565 586.963 104.307C588.453 99.1063 591.698 94.3675 596.512 91.0783C597.812 90.1899 599.168 89.4532 600.558 88.8563C600.679 88.7213 600.797 88.5846 600.921 88.4522L600.946 88.6862C600.947 88.6858 600.948 88.6854 600.949 88.6849L600.634 85.7913C600.398 83.5878 597.738 82.6369 596.14 84.1844L590.569 89.5601C589.934 90.1755 589.043 90.439 588.185 90.2639L580.647 88.7468Z" fill="#F8CD19"/>
    <path d="M598.811 118.127C598.816 118.121 598.821 118.114 598.827 118.108C598.821 118.114 598.814 118.119 598.809 118.125C598.809 118.125 598.81 118.127 598.811 118.127Z" fill="#F8CD19"/>
    <path d="M599.522 116.728C599.474 116.992 599.39 117.236 599.281 117.458C599.39 117.236 599.475 116.994 599.522 116.728Z" fill="#F8CD19"/>
    <path d="M599.27 117.481C599.231 117.559 599.185 117.629 599.139 117.701C599.185 117.629 599.231 117.559 599.27 117.481Z" fill="#F8CD19"/>
    <path d="M594.664 102.204C598.529 102.101 602.363 103.33 605.452 105.761L609.455 103.923C611.471 102.997 611.577 100.161 609.63 99.1269L602.851 95.5165C602.081 95.1061 601.562 94.3366 601.464 93.4607L600.946 88.6859C600.816 88.7389 600.688 88.8007 600.559 88.8559C597.186 92.6321 595.172 97.3312 594.664 102.204Z" fill="#F8CD19"/>
    <path d="M600.559 88.8561C600.689 88.8005 600.817 88.7388 600.947 88.6861L600.921 88.4521C600.797 88.5844 600.679 88.7212 600.559 88.8561Z" fill="#F8CD19"/>
    <path d="M599.28 117.458C599.276 117.465 599.274 117.474 599.27 117.482C599.274 117.475 599.277 117.466 599.28 117.458Z" fill="#F4E74C"/>
    <path d="M605.454 105.762L605.453 105.761L602.433 107.147L605.454 105.762Z" fill="#F4E74C"/>
    <path d="M599.139 117.701C599.115 117.738 599.095 117.779 599.069 117.815C599.094 117.779 599.115 117.739 599.139 117.701Z" fill="#F4E74C"/>
    <path d="M579.446 112.696C579.558 112.696 579.668 112.685 579.786 112.669C579.671 112.686 579.559 112.691 579.448 112.693C579.447 112.694 579.447 112.695 579.446 112.696Z" fill="#F4E74C"/>
    <path d="M594.664 102.204C592.036 102.274 589.395 102.961 586.963 104.307C586.269 106.729 585.954 109.249 586.042 111.772L579.786 112.669L587.418 111.575C588.285 111.451 589.158 111.762 589.746 112.408L594.921 118.086C596.024 119.295 597.801 119.164 598.809 118.125C598.707 117.991 598.616 117.855 598.522 117.716C595.332 112.988 594.112 107.495 594.664 102.204Z" fill="#F4E74C"/>
    <path d="M598.948 117.965C598.908 118.013 598.87 118.063 598.826 118.108C598.87 118.063 598.907 118.013 598.948 117.965Z" fill="#F4E74C"/>
    <path d="M586.963 104.307C586.496 104.565 586.036 104.845 585.586 105.153C582.747 107.093 580.675 109.736 579.448 112.693C579.559 112.691 579.671 112.685 579.786 112.669L586.042 111.772C585.954 109.249 586.269 106.728 586.963 104.307Z" fill="#F4E029"/>
    <path d="M594.664 102.204C594.112 107.496 595.332 112.988 598.521 117.716C598.616 117.855 598.707 117.991 598.809 118.125C598.814 118.119 598.821 118.114 598.826 118.108C598.869 118.063 598.907 118.012 598.947 117.964C598.988 117.915 599.031 117.868 599.069 117.815C599.094 117.779 599.115 117.738 599.139 117.701C599.185 117.629 599.231 117.559 599.27 117.482C599.274 117.474 599.276 117.465 599.28 117.458C599.39 117.236 599.473 116.993 599.521 116.728L600.905 109.12C601.06 108.254 601.632 107.518 602.432 107.146L605.452 105.76C602.363 103.329 598.529 102.101 594.664 102.204Z" fill="#F4E029"/>
    <path d="M570.924 101.374L488.837 100.703C488.837 100.703 539.114 104.097 570.924 101.374Z" fill="#F8CD19"/>
    <path d="M506.733 115.101C506.395 115.667 506.576 116.398 507.137 116.732C507.699 117.067 508.429 116.879 508.767 116.313C509.106 115.746 508.925 115.016 508.363 114.681C507.801 114.347 507.072 114.535 506.733 115.101Z" fill="#EBE224"/>
    <path d="M522.577 113.191C522.295 113.663 522.446 114.272 522.914 114.551C523.382 114.83 523.991 114.674 524.273 114.202C524.555 113.73 524.404 113.121 523.936 112.842C523.468 112.563 522.86 112.719 522.577 113.191Z" fill="#EBE224"/>
    <path d="M503.537 80.0598C503.302 80.4539 503.428 80.9626 503.819 81.1955C504.21 81.4285 504.718 81.2979 504.953 80.9036C505.189 80.5095 505.063 80.0009 504.672 79.7679C504.281 79.5349 503.773 79.6652 503.537 80.0598Z" fill="#EBE224"/>
    <path d="M469.695 94.4215C469.459 94.8159 469.586 95.3245 469.977 95.5572C470.368 95.7902 470.876 95.6593 471.111 95.2652C471.347 94.8708 471.221 94.3622 470.83 94.1295C470.439 93.8965 469.931 94.0274 469.695 94.4215Z" fill="#EBE224"/>
    <path d="M514.158 75.7231C513.922 76.1172 514.048 76.6262 514.439 76.8588C514.83 77.0918 515.338 76.961 515.574 76.5669C515.809 76.1728 515.683 75.6642 515.292 75.4312C514.901 75.1982 514.393 75.3285 514.158 75.7231Z" fill="#EBE224"/>
    <path d="M496.481 72.7202C496.246 73.1142 496.372 73.6232 496.763 73.8559C497.154 74.0889 497.662 73.9583 497.898 73.5639C498.133 73.1698 498.007 72.6612 497.616 72.4282C497.225 72.1949 496.717 72.3257 496.481 72.7202Z" fill="#EBE224"/>
    <path d="M494.753 117.365C494.517 117.76 494.643 118.268 495.034 118.501C495.425 118.734 495.934 118.604 496.169 118.209C496.404 117.815 496.279 117.306 495.887 117.073C495.496 116.84 494.988 116.971 494.753 117.365Z" fill="#EBE224"/>
    <path d="M535.518 121.141C535.282 121.535 535.408 122.043 535.799 122.276C536.191 122.51 536.699 122.379 536.934 121.985C537.17 121.59 537.044 121.081 536.652 120.849C536.262 120.615 535.754 120.746 535.518 121.141Z" fill="#EBE224"/>
    <path d="M460.407 111.571C460.171 111.965 460.297 112.474 460.688 112.706C461.079 112.94 461.588 112.809 461.823 112.414C462.058 112.02 461.932 111.511 461.541 111.279C461.15 111.046 460.642 111.176 460.407 111.571Z" fill="#EBE224"/>
    <path d="M439.493 113.02C439.257 113.415 439.383 113.923 439.775 114.156C440.165 114.389 440.674 114.258 440.909 113.864C441.145 113.47 441.019 112.961 440.628 112.728C440.237 112.495 439.729 112.626 439.493 113.02Z" fill="#EBE224"/>
    <path d="M399.281 102.113C399.045 102.507 399.172 103.016 399.563 103.248C399.954 103.481 400.462 103.351 400.697 102.956C400.933 102.562 400.807 102.053 400.416 101.821C400.025 101.588 399.517 101.718 399.281 102.113Z" fill="#EBE224"/>
    <path d="M530.325 121.811C530.043 122.283 530.194 122.892 530.662 123.171C531.13 123.45 531.738 123.294 532.02 122.822C532.303 122.35 532.152 121.741 531.684 121.462C531.216 121.183 530.607 121.34 530.325 121.811Z" fill="#EBE224"/>
    <path d="M418.677 110.221C418.395 110.693 418.546 111.302 419.014 111.581C419.482 111.86 420.091 111.703 420.373 111.231C420.655 110.76 420.504 110.15 420.036 109.872C419.568 109.592 418.959 109.749 418.677 110.221Z" fill="#EBE224"/>
    <path d="M465.744 118.833C465.406 119.399 465.587 120.13 466.149 120.464C466.711 120.799 467.441 120.611 467.779 120.045C468.117 119.478 467.936 118.748 467.375 118.413C466.813 118.079 466.083 118.266 465.744 118.833Z" fill="#EBE224"/>
    <path d="M490.612 79.5307C490.274 80.0972 490.455 80.8278 491.017 81.1624C491.579 81.497 492.309 81.3093 492.647 80.7428C492.986 80.1766 492.805 79.4458 492.243 79.1114C491.681 78.7765 490.951 78.9643 490.612 79.5307Z" fill="#EBE224"/>
    <path d="M484.293 115.445C483.873 116.148 484.097 117.056 484.795 117.471C485.492 117.887 486.399 117.654 486.819 116.951C487.239 116.247 487.015 115.34 486.317 114.925C485.619 114.508 484.713 114.742 484.293 115.445Z" fill="#F8CD19"/>
    <path d="M435.795 90.008C435.375 90.7113 435.6 91.6186 436.298 92.0342C436.995 92.4497 437.902 92.2167 438.322 91.5135C438.742 90.8103 438.517 89.9029 437.82 89.4873C437.122 89.0718 436.216 89.305 435.795 90.008Z" fill="#F8CD19"/>
    <path d="M469.255 82.7263C468.891 82.4715 468.387 82.5626 468.13 82.9298C467.873 83.297 467.959 83.8013 468.323 84.0561C468.687 84.311 469.191 84.2199 469.448 83.8526C469.705 83.4854 469.618 82.9811 469.255 82.7263Z" fill="#F8CD19"/>
    <path d="M458.112 92.1012C457.882 92.4861 458.005 92.982 458.386 93.2096C458.768 93.4372 459.264 93.3095 459.494 92.9247C459.724 92.5401 459.601 92.0439 459.219 91.8163C458.837 91.5887 458.342 91.7161 458.112 92.1012Z" fill="#F8CD19"/>
    <path d="M498.876 84.9933C498.455 85.6966 498.68 86.604 499.378 87.0195C500.075 87.435 500.982 87.2021 501.402 86.4988C501.822 85.7956 501.597 84.8882 500.9 84.4727C500.202 84.0571 499.296 84.2901 498.876 84.9933Z" fill="#F8CD19"/>
    <path d="M479.175 77.5844C478.755 78.2876 478.98 79.195 479.677 79.6106C480.375 80.0261 481.281 79.7931 481.702 79.0899C482.122 78.3867 481.897 77.4793 481.2 77.0637C480.502 76.6482 479.596 76.8808 479.175 77.5844Z" fill="#F8CD19"/>
    <path d="M482.522 82.194C482.23 82.6832 482.387 83.3139 482.872 83.6029C483.357 83.8919 483.987 83.7299 484.279 83.2407C484.572 82.7515 484.415 82.1208 483.93 81.8318C483.445 81.543 482.815 81.7051 482.522 82.194Z" fill="#F8CD19"/>
    <path d="M435.473 113.732C435.135 114.298 435.316 115.029 435.878 115.363C436.44 115.698 437.17 115.51 437.508 114.944C437.846 114.377 437.665 113.647 437.103 113.312C436.542 112.977 435.812 113.165 435.473 113.732Z" fill="#EBE224"/>
    <path d="M500.423 125.057C500.085 125.623 500.266 126.354 500.828 126.688C501.39 127.023 502.12 126.835 502.458 126.269C502.796 125.702 502.615 124.972 502.053 124.637C501.491 124.303 500.762 124.49 500.423 125.057Z" fill="#EBE224"/>
    <path d="M498.999 116.465C498.661 117.031 498.842 117.762 499.403 118.096C499.965 118.431 500.695 118.243 501.033 117.677C501.372 117.11 501.191 116.38 500.629 116.045C500.067 115.711 499.337 115.899 498.999 116.465Z" fill="#EBE224"/>
    <path d="M506.932 80.3381C506.594 80.9046 506.775 81.6351 507.337 81.9698C507.899 82.3044 508.629 82.1166 508.967 81.5502C509.305 80.9837 509.125 80.2534 508.563 79.9187C508.001 79.5841 507.271 79.7719 506.932 80.3381Z" fill="#EBE224"/>
    <path d="M496.076 120.652C495.635 121.391 495.871 122.344 496.604 122.781C497.337 123.218 498.289 122.973 498.731 122.234C499.172 121.495 498.936 120.542 498.203 120.105C497.471 119.669 496.518 119.913 496.076 120.652Z" fill="#F4E74C"/>
    <path d="M450.903 31.9078L494.672 38.2791C487.568 37.8883 453.262 37.2713 453.262 37.2713C470.455 39.1047 490.896 39.6143 490.896 39.6143L448.22 40.9639C469.978 42.3052 507.808 39.9829 507.976 39.9963C507.976 39.9963 483.548 33.7311 450.903 31.9078Z" fill="#EBE224"/>
    <path d="M500.541 41.4988C501.073 41.4432 464.094 43.2127 464.094 43.2127C464.094 43.2127 474.396 44.2433 500.541 41.4988Z" fill="#EBE224"/>
    <path d="M460.321 43.0809L455.498 42.7605C455.498 42.7605 457.198 43.999 460.321 43.0809Z" fill="#EBE224"/>
    <path d="M450.572 37.044L445.749 36.7236C445.749 36.7236 447.449 37.9623 450.572 37.044Z" fill="#F8CD19"/>
    <path d="M444.69 36.6911L441.679 36.4912C441.679 36.4912 442.681 37.3045 444.69 36.6911Z" fill="#F8CD19"/>
    <path d="M446.594 41.1803L441.771 40.86C441.771 40.86 443.471 42.0984 446.594 41.1803Z" fill="#EBE224"/>
    <path d="M449.229 31.8623L444.406 31.5419C444.406 31.5419 446.106 32.7806 449.229 31.8623Z" fill="#EBE224"/>
    <path d="M499.762 37.3531L466.506 31.8575C466.506 31.8575 483.225 32.8176 499.762 37.3531Z" fill="#F8CD19"/>
    <path d="M499.48 39.2604L475.609 40.5324C475.609 40.5324 487.779 41.8261 499.48 39.2604Z" fill="#F4E74C"/>
    <path d="M493.669 34.6297C493.582 34.7868 493.638 34.9834 493.794 35.0692C493.95 35.1547 494.147 35.0967 494.234 34.9393C494.32 34.7822 494.264 34.5856 494.108 34.4998C493.952 34.4143 493.755 34.4723 493.669 34.6297Z" fill="#EBE224"/>
    <path d="M474.885 34.5894C474.798 34.7464 474.854 34.9431 475.01 35.0288C475.166 35.1144 475.363 35.0564 475.449 34.899C475.536 34.7419 475.48 34.5453 475.324 34.4595C475.168 34.3743 474.971 34.4323 474.885 34.5894Z" fill="#EBE224"/>
    <path d="M468.012 35.5372C467.926 35.6943 467.982 35.8909 468.138 35.9767C468.294 36.0622 468.49 36.0043 468.577 35.8468C468.664 35.6898 468.607 35.4931 468.451 35.4074C468.295 35.3222 468.099 35.3801 468.012 35.5372Z" fill="#EBE224"/>
    <path d="M486.013 45.4111C485.926 45.5682 485.982 45.7648 486.139 45.8506C486.294 45.9361 486.491 45.8781 486.578 45.7207C486.664 45.5636 486.608 45.367 486.452 45.2812C486.296 45.1961 486.099 45.254 486.013 45.4111Z" fill="#EBE224"/>
    <path d="M481.256 37.3439C481.17 37.501 481.226 37.6976 481.382 37.7834C481.538 37.8689 481.735 37.8109 481.821 37.6535C481.908 37.4965 481.852 37.2998 481.696 37.2141C481.54 37.1286 481.343 37.1868 481.256 37.3439Z" fill="#EBE224"/>
    <path d="M462.999 31.8268C462.912 31.9839 462.968 32.1805 463.125 32.2663C463.28 32.3518 463.477 32.2938 463.564 32.1364C463.65 31.9794 463.594 31.7827 463.438 31.697C463.282 31.6118 463.085 31.6697 462.999 31.8268Z" fill="#F4E74C"/>
    <path d="M455.629 34.8044C455.543 34.9614 455.599 35.1581 455.755 35.2438C455.911 35.3293 456.107 35.2714 456.194 35.114C456.281 34.9569 456.225 34.7603 456.068 34.6745C455.912 34.589 455.716 34.6473 455.629 34.8044Z" fill="#F4E74C"/>
    <path d="M471.058 42.2024C470.971 42.3595 471.027 42.5561 471.183 42.6419C471.339 42.7274 471.536 42.6694 471.623 42.512C471.709 42.3549 471.653 42.1583 471.497 42.0725C471.341 41.9874 471.144 42.0451 471.058 42.2024Z" fill="#F4E74C"/>
    <path d="M472.125 44.4212C472.038 44.5782 472.094 44.7749 472.25 44.8606C472.406 44.9461 472.603 44.8882 472.69 44.7308C472.776 44.5737 472.72 44.377 472.564 44.2913C472.408 44.2058 472.211 44.2641 472.125 44.4212Z" fill="#EBE224"/>
    <path d="M452.873 41.9125C452.769 42.1007 452.836 42.336 453.023 42.4386C453.21 42.5412 453.445 42.4715 453.549 42.2833C453.653 42.0951 453.585 41.8599 453.398 41.7573C453.211 41.655 452.976 41.7247 452.873 41.9125Z" fill="#EBE224"/>
    <path d="M473.678 44.1723C473.554 44.398 473.634 44.6807 473.858 44.8034C474.082 44.926 474.365 44.8428 474.489 44.617C474.613 44.3915 474.532 44.1086 474.308 43.986C474.085 43.863 473.802 43.9462 473.678 44.1723Z" fill="#EBE224"/>
    <path d="M478.396 36.8866C478.272 37.1124 478.353 37.395 478.577 37.5177C478.801 37.6404 479.083 37.5571 479.207 37.3314C479.332 37.1056 479.251 36.823 479.027 36.7003C478.803 36.5773 478.521 36.6609 478.396 36.8866Z" fill="#EBE224"/>
    <path d="M499.899 37.3087C499.745 37.5892 499.845 37.9399 500.123 38.0925C500.401 38.2451 500.752 38.1416 500.906 37.8612C501.061 37.5808 500.961 37.2301 500.683 37.0774C500.405 36.9247 500.054 37.0283 499.899 37.3087Z" fill="#F8CD19"/>
    <path d="M452.51 39.275C452.355 39.5554 452.455 39.9061 452.734 40.0587C453.012 40.2113 453.362 40.1078 453.517 39.8274C453.671 39.547 453.571 39.1963 453.293 39.0436C453.015 38.891 452.664 38.9945 452.51 39.275Z" fill="#F8CD19"/>
    <path d="M461.82 34.6332C461.666 34.9136 461.766 35.2644 462.044 35.417C462.322 35.5696 462.673 35.4661 462.827 35.1857C462.982 34.9052 462.882 34.5545 462.603 34.4019C462.326 34.2492 461.975 34.353 461.82 34.6332Z" fill="#F8CD19"/>
    <path d="M474.886 35.7601C474.779 35.9548 474.849 36.1991 475.042 36.3049C475.235 36.4111 475.479 36.3392 475.586 36.1442C475.694 35.9495 475.624 35.7052 475.431 35.5992C475.238 35.4929 474.994 35.565 474.886 35.7601Z" fill="#F8CD19"/>
    <path d="M461.785 42.6005C461.661 42.8263 461.742 43.1089 461.966 43.2316C462.19 43.3543 462.472 43.2711 462.596 43.0453C462.721 42.8196 462.64 42.5369 462.416 42.4142C462.192 42.2912 461.91 42.3744 461.785 42.6005Z" fill="#EBE224"/>
    <path d="M497.781 43.1725C497.657 43.3982 497.738 43.6809 497.962 43.8035C498.186 43.9262 498.468 43.843 498.593 43.6172C498.717 43.3915 498.636 43.1088 498.412 42.9862C498.188 42.8631 497.906 42.9466 497.781 43.1725Z" fill="#EBE224"/>
    <path d="M464.117 35.2324C463.993 35.4581 464.074 35.7408 464.298 35.8635C464.522 35.9862 464.804 35.9029 464.929 35.6772C465.053 35.4514 464.972 35.1688 464.748 35.0461C464.524 34.9231 464.242 35.0063 464.117 35.2324Z" fill="#EBE224"/>
    <path d="M489.102 44.252C488.94 44.5465 489.045 44.9154 489.337 45.0755C489.63 45.2359 489.998 45.1268 490.16 44.8323C490.323 44.5377 490.217 44.1688 489.925 44.0088C489.633 43.8483 489.264 43.9574 489.102 44.252Z" fill="#F4E74C"/>
    <path d="M501.691 42.1858L502.867 39.9361C503.001 39.6796 503.001 39.3741 502.867 39.1196L501.695 36.8878C501.358 36.2467 501.903 35.4905 502.618 35.6077L505.105 36.0164C505.389 36.0632 505.678 35.9663 505.879 35.7582L507.642 33.932C508.149 33.4073 509.03 33.688 509.134 34.4068L509.495 36.9093C509.536 37.1946 509.715 37.4404 509.973 37.5663L512.235 38.6691C512.885 38.986 512.884 39.916 512.234 40.2425L509.97 41.3801C509.712 41.51 509.533 41.7583 509.491 42.0442L509.126 44.5522C509.021 45.2726 508.14 45.5668 507.634 45.0497L505.874 43.2506C505.673 43.0457 505.383 42.9531 505.1 43.0042L502.612 43.4511C501.897 43.5799 501.353 42.832 501.691 42.1858Z" fill="#F9DA19"/>
    <path d="M502.618 35.6069C501.903 35.4896 501.359 36.2465 501.695 36.8877L502.867 39.1191C503.001 39.374 503 39.6797 502.867 39.9354L501.691 42.1857C501.371 42.7974 501.843 43.4997 502.501 43.4629C502.869 42.4804 503.517 41.5904 504.425 40.9222C504.569 40.8163 504.717 40.7192 504.867 40.629C505.295 38.9083 506.304 37.3187 507.843 36.1855C508.259 35.8793 508.695 35.6225 509.144 35.4105C509.181 35.365 509.218 35.3186 509.258 35.2741L509.269 35.3501L509.269 35.3497L509.133 34.4055C509.03 33.6864 508.147 33.406 507.642 33.9314L505.878 35.7569C505.677 35.9659 505.388 36.0623 505.105 36.0149L502.618 35.6069Z" fill="#F8CD19"/>
    <path d="M508.909 45.0181C508.911 45.0157 508.912 45.013 508.915 45.0106C508.912 45.013 508.91 45.0148 508.908 45.0172L508.909 45.0181Z" fill="#F8CD19"/>
    <path d="M508.99 44.913C508.979 44.931 508.965 44.9467 508.952 44.9634C508.965 44.9467 508.978 44.9308 508.99 44.913Z" fill="#F8CD19"/>
    <path d="M509.052 44.8015C509.04 44.8273 509.026 44.8509 509.012 44.8749C509.026 44.8508 509.04 44.827 509.052 44.8015Z" fill="#F8CD19"/>
    <path d="M507.366 39.8513C508.631 39.7726 509.902 40.1304 510.943 40.8907L512.233 40.2424C512.883 39.9153 512.885 38.9855 512.235 38.6695L509.972 37.5659C509.715 37.4404 509.536 37.1944 509.494 36.9089L509.268 35.3511C509.226 35.3699 509.185 35.3918 509.144 35.4114C508.082 36.6871 507.477 38.2496 507.366 39.8513Z" fill="#F8CD19"/>
    <path d="M509.144 35.4112C509.185 35.3916 509.227 35.3697 509.269 35.3508L509.258 35.2748C509.219 35.3198 509.182 35.366 509.144 35.4112Z" fill="#F8CD19"/>
    <path d="M509.056 44.7925C509.054 44.7955 509.054 44.7986 509.052 44.8016C509.054 44.7986 509.054 44.7951 509.056 44.7925Z" fill="#F4E74C"/>
    <path d="M510.943 40.8912L510.943 40.891L509.969 41.38L510.943 40.8912Z" fill="#F4E74C"/>
    <path d="M502.501 43.4645C502.537 43.4632 502.573 43.4584 502.612 43.4518C502.574 43.4586 502.538 43.4616 502.501 43.4635C502.501 43.4639 502.501 43.4645 502.501 43.4645Z" fill="#F4E74C"/>
    <path d="M507.366 39.8513C506.505 39.9048 505.648 40.1607 504.867 40.6297C504.668 41.4308 504.593 42.2601 504.651 43.0854L502.611 43.4518L505.1 43.0048C505.382 42.9539 505.672 43.0456 505.872 43.2503L507.634 45.0501C508.009 45.4331 508.59 45.3693 508.908 45.0174C508.873 44.9748 508.842 44.9313 508.809 44.8868C507.71 43.3756 507.247 41.5907 507.366 39.8513Z" fill="#F4E74C"/>
    <path d="M504.867 40.6297C504.717 40.7199 504.569 40.817 504.425 40.9229C503.518 41.5913 502.869 42.481 502.501 43.4636C502.537 43.4614 502.574 43.4585 502.611 43.4518L504.651 43.0854C504.593 42.2601 504.668 41.4308 504.867 40.6297Z" fill="#F4E029"/>
    <path d="M507.366 39.8513C507.246 41.5908 507.71 43.3759 508.809 44.887C508.842 44.9315 508.873 44.9751 508.908 45.0176C508.91 45.0155 508.912 45.0139 508.914 45.0119C508.927 44.9968 508.939 44.9799 508.952 44.9635C508.964 44.9468 508.978 44.9308 508.99 44.9131C508.997 44.901 509.004 44.8875 509.011 44.875C509.025 44.8512 509.04 44.8274 509.052 44.8017C509.053 44.7991 509.053 44.7964 509.055 44.7938C509.088 44.7197 509.113 44.6392 509.125 44.5518L509.491 42.0442C509.532 41.7585 509.711 41.5107 509.969 41.3801L510.942 40.891C509.902 40.1306 508.631 39.7726 507.366 39.8513Z" fill="#F4E029"/>
    <path d="M447.997 160.152L511.583 161.672C501.373 162.343 452.285 167.386 452.285 167.386C477.147 167.03 506.421 164.226 506.421 164.226L445.72 173.519C477.016 171.673 530.63 161.831 530.872 161.822C530.872 161.822 494.919 157.113 447.997 160.152Z" fill="#EBE224"/>
    <path d="M520.515 165.247C521.265 165.075 468.771 173.982 468.771 173.982C468.771 173.982 483.656 173.672 520.515 165.247Z" fill="#EBE224"/>
    <path d="M463.361 174.446L456.42 174.822C456.42 174.822 459.06 176.293 463.361 174.446Z" fill="#EBE224"/>
    <path d="M448.406 167.528L441.465 167.904C441.465 167.904 444.105 169.375 448.406 167.528Z" fill="#F8CD19"/>
    <path d="M439.947 168.04L435.614 168.275C435.614 168.275 437.184 169.261 439.947 168.04Z" fill="#F8CD19"/>
    <path d="M443.436 174.108L436.495 174.485C436.495 174.485 439.135 175.956 443.436 174.108Z" fill="#EBE224"/>
    <path d="M445.599 160.376L438.658 160.753C438.658 160.753 441.298 162.224 445.599 160.376Z" fill="#EBE224"/>
    <path d="M518.69 159.475L470.265 157.386C470.265 157.386 494.301 155.867 518.69 159.475Z" fill="#F8CD19"/>
    <path d="M518.615 162.241L484.752 168.175C484.752 168.175 502.35 167.916 518.615 162.241Z" fill="#F4E74C"/>
    <path d="M509.524 156.646C509.427 156.885 509.541 157.155 509.779 157.25C510.016 157.345 510.287 157.229 510.384 156.99C510.48 156.751 510.366 156.48 510.129 156.385C509.891 156.29 509.62 156.407 509.524 156.646Z" fill="#EBE224"/>
    <path d="M482.697 159.832C482.601 160.071 482.715 160.342 482.952 160.437C483.189 160.532 483.46 160.415 483.557 160.176C483.654 159.937 483.539 159.667 483.302 159.572C483.065 159.477 482.794 159.593 482.697 159.832Z" fill="#EBE224"/>
    <path d="M473.048 162.369C472.951 162.608 473.065 162.879 473.302 162.974C473.539 163.069 473.81 162.952 473.907 162.713C474.004 162.474 473.89 162.204 473.653 162.108C473.415 162.014 473.144 162.131 473.048 162.369Z" fill="#EBE224"/>
    <path d="M500.443 173.33C500.346 173.569 500.46 173.84 500.698 173.935C500.935 174.03 501.206 173.913 501.303 173.674C501.399 173.435 501.285 173.165 501.048 173.07C500.81 172.975 500.539 173.091 500.443 173.33Z" fill="#EBE224"/>
    <path d="M492.268 162.657C492.171 162.896 492.285 163.166 492.523 163.261C492.76 163.356 493.031 163.239 493.128 163.001C493.224 162.762 493.11 162.491 492.873 162.396C492.635 162.301 492.365 162.418 492.268 162.657Z" fill="#EBE224"/>
    <path d="M465.253 157.948C465.157 158.187 465.271 158.458 465.508 158.553C465.745 158.648 466.016 158.531 466.113 158.292C466.21 158.053 466.095 157.783 465.858 157.688C465.621 157.592 465.35 157.709 465.253 157.948Z" fill="#F4E74C"/>
    <path d="M455.242 163.463C455.145 163.702 455.259 163.972 455.497 164.068C455.734 164.163 456.005 164.046 456.102 163.807C456.198 163.568 456.084 163.298 455.847 163.202C455.61 163.107 455.339 163.224 455.242 163.463Z" fill="#F4E74C"/>
    <path d="M478.539 171.34C478.443 171.58 478.557 171.85 478.794 171.945C479.032 172.04 479.302 171.923 479.399 171.685C479.496 171.446 479.382 171.175 479.144 171.08C478.907 170.985 478.636 171.101 478.539 171.34Z" fill="#F4E74C"/>
    <path d="M480.444 174.317C480.348 174.556 480.462 174.827 480.699 174.922C480.936 175.017 481.207 174.9 481.304 174.661C481.401 174.422 481.287 174.152 481.049 174.057C480.812 173.962 480.541 174.079 480.444 174.317Z" fill="#EBE224"/>
    <path d="M452.526 174.068C452.41 174.354 452.547 174.677 452.831 174.791C453.115 174.905 453.439 174.765 453.555 174.479C453.671 174.193 453.534 173.869 453.25 173.756C452.966 173.642 452.642 173.781 452.526 174.068Z" fill="#EBE224"/>
    <path d="M482.618 173.694C482.479 174.037 482.644 174.426 482.984 174.562C483.325 174.699 483.714 174.531 483.853 174.188C483.991 173.845 483.828 173.456 483.487 173.32C483.146 173.184 482.758 173.351 482.618 173.694Z" fill="#EBE224"/>
    <path d="M488.106 162.499C487.967 162.842 488.131 163.231 488.471 163.367C488.812 163.503 489.201 163.335 489.34 162.992C489.478 162.649 489.315 162.26 488.974 162.124C488.634 161.988 488.245 162.156 488.106 162.499Z" fill="#EBE224"/>
    <path d="M518.88 159.387C518.707 159.814 518.91 160.296 519.334 160.466C519.757 160.635 520.24 160.427 520.413 160.001C520.585 159.575 520.382 159.092 519.958 158.923C519.535 158.753 519.052 158.961 518.88 159.387Z" fill="#F8CD19"/>
    <path d="M451.555 170.372C451.383 170.798 451.586 171.281 452.009 171.45C452.433 171.619 452.916 171.412 453.088 170.985C453.261 170.559 453.057 170.076 452.634 169.907C452.21 169.738 451.728 169.946 451.555 170.372Z" fill="#F8CD19"/>
    <path d="M464.052 162.15C463.88 162.577 464.083 163.059 464.507 163.229C464.93 163.398 465.413 163.19 465.585 162.764C465.758 162.337 465.555 161.855 465.131 161.686C464.708 161.516 464.225 161.724 464.052 162.15Z" fill="#F8CD19"/>
    <path d="M482.901 161.5C482.782 161.796 482.923 162.131 483.217 162.249C483.512 162.367 483.848 162.222 483.968 161.926C484.087 161.63 483.946 161.294 483.651 161.176C483.357 161.058 483.021 161.203 482.901 161.5Z" fill="#F8CD19"/>
    <path d="M465.37 173.509C465.231 173.852 465.395 174.241 465.736 174.377C466.077 174.513 466.466 174.345 466.604 174.003C466.743 173.66 466.579 173.271 466.239 173.134C465.898 172.998 465.508 173.165 465.37 173.509Z" fill="#EBE224"/>
    <path d="M516.862 168.108C516.723 168.451 516.887 168.84 517.228 168.976C517.569 169.112 517.958 168.945 518.096 168.602C518.235 168.259 518.071 167.87 517.731 167.733C517.39 167.597 517.001 167.765 516.862 168.108Z" fill="#EBE224"/>
    <path d="M467.435 162.607C467.296 162.951 467.46 163.339 467.801 163.476C468.142 163.612 468.531 163.444 468.669 163.101C468.808 162.758 468.644 162.369 468.304 162.233C467.963 162.097 467.574 162.264 467.435 162.607Z" fill="#EBE224"/>
    <path d="M504.655 171.145C504.473 171.593 504.687 172.1 505.132 172.278C505.577 172.456 506.084 172.237 506.265 171.79C506.446 171.342 506.233 170.835 505.788 170.657C505.343 170.479 504.836 170.697 504.655 171.145Z" fill="#F4E74C"/>
    <path d="M522.274 166.027L523.567 162.619C523.714 162.23 523.662 161.795 523.427 161.455L521.37 158.478C520.779 157.622 521.428 156.451 522.468 156.495L526.089 156.648C526.503 156.665 526.899 156.477 527.151 156.146L529.354 153.239C529.987 152.404 531.294 152.652 531.565 153.658L532.51 157.161C532.618 157.561 532.916 157.88 533.305 158.015L536.725 159.196C537.707 159.535 537.865 160.86 536.993 161.438L533.956 163.45C533.61 163.679 533.396 164.064 533.386 164.479L533.296 168.116C533.27 169.16 532.061 169.732 531.251 169.083L528.429 166.823C528.107 166.566 527.678 166.484 527.281 166.606L523.806 167.673C522.808 167.978 521.902 167.006 522.274 166.027Z" fill="#F9DA19"/>
    <path d="M522.468 156.493C521.428 156.449 520.781 157.622 521.371 158.477L523.427 161.455C523.663 161.795 523.714 162.23 523.567 162.618L522.274 166.027C521.923 166.954 522.718 167.873 523.651 167.707C524.008 166.244 524.781 164.864 525.962 163.755C526.15 163.579 526.344 163.415 526.542 163.261C526.858 160.735 528.026 158.296 530.03 156.416C530.571 155.908 531.149 155.466 531.754 155.087C531.8 155.016 531.845 154.943 531.893 154.873L531.922 154.98L531.923 154.979L531.566 153.657C531.296 152.651 529.988 152.403 529.356 153.24L527.151 156.145C526.9 156.477 526.504 156.665 526.091 156.646L522.468 156.493Z" fill="#F8CD19"/>
    <path d="M533.066 168.817C533.069 168.813 533.071 168.809 533.073 168.805C533.071 168.808 533.068 168.812 533.065 168.815L533.066 168.817Z" fill="#F8CD19"/>
    <path d="M533.164 168.653C533.15 168.68 533.134 168.705 533.118 168.731C533.134 168.705 533.15 168.68 533.164 168.653Z" fill="#F8CD19"/>
    <path d="M533.296 168.115C533.292 168.241 533.271 168.36 533.236 168.472C533.272 168.36 533.294 168.241 533.296 168.115Z" fill="#F8CD19"/>
    <path d="M533.233 168.483C533.221 168.521 533.204 168.558 533.188 168.594C533.204 168.558 533.221 168.521 533.233 168.483Z" fill="#F8CD19"/>
    <path d="M529.977 161.721C531.77 161.39 533.646 161.681 535.262 162.584L536.993 161.438C537.865 160.86 537.708 159.534 536.725 159.196L533.305 158.014C532.916 157.88 532.619 157.561 532.509 157.161L531.921 154.98C531.864 155.014 531.809 155.052 531.753 155.087C530.456 157.089 529.859 159.419 529.977 161.721Z" fill="#F8CD19"/>
    <path d="M531.753 155.088C531.809 155.052 531.864 155.014 531.921 154.98L531.892 154.873C531.844 154.944 531.799 155.016 531.753 155.088Z" fill="#F8CD19"/>
    <path d="M533.237 168.47C533.236 168.474 533.235 168.479 533.234 168.483C533.235 168.479 533.236 168.474 533.237 168.47Z" fill="#F4E74C"/>
    <path d="M535.262 162.585L535.262 162.584L533.955 163.45L535.262 162.585Z" fill="#F4E74C"/>
    <path d="M523.65 167.71C523.702 167.701 523.752 167.688 523.806 167.672C523.754 167.688 523.702 167.699 523.65 167.708L523.65 167.71Z" fill="#F4E74C"/>
    <path d="M529.977 161.721C528.757 161.946 527.577 162.458 526.541 163.262C526.394 164.437 526.431 165.632 526.655 166.798L523.806 167.672L527.282 166.606C527.677 166.485 528.106 166.565 528.427 166.822L531.251 169.082C531.853 169.563 532.671 169.372 533.065 168.816C533.008 168.761 532.956 168.705 532.902 168.647C531.072 166.683 530.104 164.22 529.977 161.721Z" fill="#F4E74C"/>
    <path d="M526.542 163.261C526.343 163.416 526.149 163.579 525.962 163.755C524.78 164.864 524.007 166.244 523.65 167.708C523.702 167.699 523.754 167.688 523.806 167.672L526.655 166.797C526.431 165.632 526.395 164.437 526.542 163.261Z" fill="#F4E029"/>
    <path d="M529.977 161.721C530.104 164.22 531.072 166.683 532.902 168.647C532.956 168.705 533.008 168.761 533.065 168.816C533.068 168.813 533.07 168.81 533.072 168.807C533.089 168.783 533.103 168.756 533.118 168.731C533.133 168.705 533.15 168.68 533.164 168.653C533.173 168.634 533.18 168.614 533.188 168.595C533.204 168.558 533.221 168.522 533.233 168.484C533.234 168.48 533.235 168.476 533.236 168.472C533.271 168.36 533.292 168.241 533.296 168.115L533.387 164.479C533.396 164.064 533.609 163.681 533.955 163.45L535.261 162.585C533.645 161.681 531.77 161.39 529.977 161.721Z" fill="#F4E029"/>
    <animateMotion path="M 16.52 -1.437 L 836.936 -4.309" dur="8s" keyTimes="0;0.5;1" keyPoints="0;1;1" calcMode="linear" repeatCount="indefinite"/>
  </g>
  <defs>
    <filter id="filter0_d_0_1" x="631" y="0" width="608" height="208" filterUnits="userSpaceOnUse" color-interpolation-filters="sRGB">
      <feFlood flood-opacity="0" result="BackgroundImageFix"/>
      <feColorMatrix in="SourceAlpha" type="matrix" values="0 0 0 0 0 0 0 0 0 0 0 0 0 0 0 0 0 0 127 0" result="hardAlpha"/>
      <feOffset dy="4"/>
      <feGaussianBlur stdDeviation="2"/>
      <feComposite in2="hardAlpha" operator="out"/>
      <feColorMatrix type="matrix" values="0 0 0 0 0 0 0 0 0 0 0 0 0 0 0 0 0 0 0.25 0"/>
      <feBlend mode="normal" in2="BackgroundImageFix" result="effect1_dropShadow_0_1"/>
      <feBlend mode="normal" in="SourceGraphic" in2="effect1_dropShadow_0_1" result="shape"/>
    </filter>
    <filter id="filter1_d_0_1" x="0.248001" y="87.304" width="377.915" height="64.8865" filterUnits="userSpaceOnUse" color-interpolation-filters="sRGB">
      <feFlood flood-opacity="0" result="BackgroundImageFix"/>
      <feColorMatrix in="SourceAlpha" type="matrix" values="0 0 0 0 0 0 0 0 0 0 0 0 0 0 0 0 0 0 127 0" result="hardAlpha"/>
      <feOffset dy="4"/>
      <feGaussianBlur stdDeviation="2"/>
      <feComposite in2="hardAlpha" operator="out"/>
      <feColorMatrix type="matrix" values="0 0 0 0 0 0 0 0 0 0 0 0 0 0 0 0 0 0 0.25 0"/>
      <feBlend mode="normal" in2="BackgroundImageFix" result="effect1_dropShadow_0_1"/>
      <feBlend mode="normal" in="SourceGraphic" in2="effect1_dropShadow_0_1" result="shape"/>
    </filter>
  </defs>
</svg>